<svg width="69" height="32" viewBox="0 0 69 32" fill="none" xmlns="http://www.w3.org/2000/svg">
<g id="Isolation_Mode" clip-path="url(#clip0_3_835)">
<path id="Vector" d="M55.6391 0C55.8022 0.0307515 55.959 0.0553527 56.1221 0.0861042C56.6929 0.20296 57.1383 0.522775 57.546 0.916394C61.0964 4.39746 64.6405 7.88468 68.2034 11.3534C68.7867 11.9193 69.069 12.5589 68.9875 13.3523C68.9373 13.8074 68.7679 14.2318 68.448 14.5639C67.6388 15.3942 66.8297 16.2368 65.964 17.0117C64.86 18.0019 63.3985 17.9343 62.3258 16.9072C61.479 16.0953 60.651 15.265 59.8105 14.4409C59.7352 14.3671 59.6474 14.2933 59.5157 14.1641V14.5762C59.5157 19.2566 59.5157 23.9308 59.5157 28.6112C59.5157 29.4599 59.2647 30.1918 58.5998 30.7638C58.2423 31.0713 57.8346 31.2804 57.3641 31.2866C56.1409 31.2989 54.9115 31.3358 53.6883 31.2497C52.5592 31.1697 51.6371 30.1488 51.5305 29.0417C51.5117 28.8572 51.5117 28.6727 51.5117 28.4943C51.5117 23.814 51.5117 19.1397 51.5117 14.4594V14.0657C51.3925 14.1703 51.3172 14.2318 51.2482 14.2994C50.2947 15.2343 49.3413 16.1753 48.3878 17.1163C47.6414 17.8543 46.2426 17.9404 45.3957 17.1901C44.4297 16.3413 43.5077 15.4372 42.6483 14.4901C41.8454 13.6045 42.0147 12.1714 42.9494 11.2489C43.8527 10.351 44.7685 9.45916 45.6843 8.56737C48.2185 6.08264 50.7589 3.59792 53.2868 1.10705C53.7761 0.62733 54.2654 0.172208 54.9554 0L55.6391 0ZM53.6444 20.0807V28.5804C53.6444 29.0786 53.7887 29.2262 54.2842 29.2262C55.1687 29.2262 56.0531 29.2139 56.9313 29.2324C57.2512 29.2385 57.3578 29.0848 57.3767 28.8141C57.3829 28.7157 57.3767 28.6112 57.3767 28.5066C57.3767 22.9837 57.3767 17.4607 57.3767 11.9316C57.3767 11.8086 57.3767 11.6856 57.3767 11.5626C57.3892 11.255 57.5335 11.0152 57.7781 10.8368C58.2862 10.4617 58.7755 10.5109 59.2773 10.9967C60.3813 12.073 61.4853 13.1555 62.583 14.2379C62.9845 14.6316 63.3859 15.0313 63.7936 15.4249C64.032 15.6525 64.3206 15.6771 64.5401 15.468C65.2928 14.7484 66.0267 14.0165 66.7669 13.2846C66.93 13.1247 66.9363 12.971 66.7669 12.8111C66.6979 12.7496 66.6352 12.6819 66.5725 12.6143C63.066 9.17624 59.5596 5.73823 56.0531 2.30021C55.9653 2.21411 55.8649 2.1403 55.7771 2.0542C55.5325 1.82664 55.3255 1.89429 55.1059 2.10955C51.5493 5.59677 47.9927 9.08399 44.436 12.5774C44.1349 12.8726 44.1412 13.0079 44.4486 13.3154C45.0947 13.9489 45.7407 14.5824 46.3868 15.2158C46.7695 15.591 46.7946 15.591 47.1772 15.2158C48.6513 13.7767 50.1191 12.3313 51.5869 10.8922C51.681 10.7999 51.7814 10.7077 51.888 10.6277C52.2707 10.3387 52.6972 10.3756 53.0987 10.5355C53.475 10.6892 53.5817 11.0398 53.6067 11.415C53.613 11.5195 53.6067 11.6179 53.6067 11.7225V20.0684" fill="#FF8A00"/>
<path id="Vector_2" d="M9.72273 5.29541H16.1585L25.7935 32H19.6211L17.8271 26.5139H7.797L5.95282 32H0L9.72273 5.29541ZM9.34636 21.9074H16.3216L12.8779 11.4027L9.34636 21.9074Z" fill="#FF8A00"/>
<path id="Vector_3" d="M34.4498 5.29541H28.7981V32H34.4498V5.29541Z" fill="#FF8A00"/>
</g>
<defs>
<clipPath id="clip0_3_835">
<rect width="69" height="32" fill="white"/>
</clipPath>
</defs>
</svg>
