<svg width="69" height="70" viewBox="0 0 69 70" fill="none" xmlns="http://www.w3.org/2000/svg">
<g id="Isolation_Mode" clip-path="url(#clip0_3_1013)">
<path id="Vector" d="M46.6691 70C46.3053 69.699 45.9164 69.4167 45.5776 69.0843C44.574 68.087 43.5892 67.0771 42.6044 66.061C41.9018 65.3334 41.8955 64.612 42.5793 63.9033C43.7021 62.7429 44.8375 61.5825 45.9791 60.4409C46.6189 59.8011 47.4155 59.7697 47.9864 60.3217C48.5635 60.88 48.5635 61.6766 47.9425 62.3289C47.5849 62.7052 47.1584 63.0188 46.7632 63.3638C46.8008 63.4203 46.8385 63.4767 46.8761 63.5332H62.6081V62.7178C62.6081 57.0413 62.6081 51.371 62.6081 45.6945C62.6081 45.3997 62.6081 45.0986 62.6457 44.8101C62.7398 44.164 63.273 43.7187 63.9254 43.6999C64.584 43.681 65.1297 44.0825 65.274 44.7285C65.3305 44.992 65.3367 45.268 65.3367 45.5439C65.3367 51.854 65.3367 58.164 65.3367 64.4803C65.3367 65.8979 64.9102 66.3244 63.5114 66.3244C58.2235 66.3244 52.9355 66.3244 47.6476 66.3244H46.7318C47.1082 66.7258 47.3842 67.0332 47.6727 67.328C48.714 68.4006 48.6638 69.1282 47.4783 69.9938H46.6565L46.6691 70Z" fill="#FF8A00"/>
<path id="Vector_2" d="M33.5403 69.9999C33.1827 69.8745 32.8189 69.7616 32.4676 69.611C30.1718 68.6576 28.9173 66.2428 29.4693 63.8279C29.9962 61.5071 32.223 59.8198 34.5815 59.9515C37.1408 60.0958 39.0791 61.9336 39.3865 64.5053C39.6562 66.7885 38.1131 69.0653 35.8173 69.7741C35.604 69.8431 35.397 69.9184 35.19 69.9937H33.5465L33.5403 69.9999ZM36.6641 64.9444C36.6453 63.6836 35.5852 62.6487 34.3244 62.68C33.0824 62.7051 32.0725 63.7275 32.0662 64.9632C32.0662 66.2177 33.1137 67.2714 34.3745 67.2652C35.6354 67.2652 36.6829 66.1989 36.6704 64.9507" fill="#FF8A00"/>
<path id="Vector_3" d="M34.8136 55.7743C29.049 55.7743 23.2844 55.7743 17.5197 55.7743C16.1648 55.7743 15.7069 55.329 15.7069 53.9804C15.7069 51.5906 15.6505 49.1946 15.7571 46.8048C15.9265 42.8532 18.7116 39.5852 22.563 38.6507C24.5326 38.174 26.4897 37.6722 28.4656 37.208C28.8546 37.1139 28.98 36.932 29.0866 36.5494C29.4128 35.3953 29.2748 34.5234 28.359 33.5826C26.9978 32.1901 26.4333 30.3648 26.427 28.3953C26.4207 25.9804 26.4145 23.5655 26.427 21.1507C26.4333 19.3818 27.2613 18.1274 28.8357 17.3308C29.0678 17.2116 29.2811 16.967 29.394 16.7286C30.1593 15.1041 31.4076 14.2322 33.2078 14.2197C36.3316 14.2008 39.4555 14.2134 42.573 14.2197C43.6206 14.2197 44.1349 14.7089 44.1475 15.7627C44.1663 17.5189 44.2353 19.2752 44.1161 21.0252C44.0534 21.9222 43.6268 22.794 43.3696 23.6784C43.2818 23.9732 43.1564 24.2743 43.1501 24.5754C43.0936 26.2815 43.1626 27.9939 42.9996 29.6874C42.8302 31.4625 41.952 32.9679 40.6786 34.2161C40.3336 34.5611 40.3086 34.8684 40.3148 35.3451C40.3336 36.7627 41.0048 37.3146 42.366 37.5279C44.0032 37.7851 45.5965 38.2806 47.2086 38.6883C51.0726 39.6542 53.8639 43.1605 53.9266 47.156C53.958 49.4768 53.9392 51.8039 53.9329 54.131C53.9329 55.2913 53.4311 55.7869 52.2581 55.7869C46.4496 55.7869 40.6347 55.7869 34.8262 55.7869M22.9143 53.0207C22.9143 51.622 22.9143 50.2985 22.9143 48.9813C22.9143 48.7555 22.9017 48.5234 22.9268 48.2976C23.0209 47.5136 23.6168 46.9992 24.3633 47.0369C25.0846 47.0745 25.6116 47.6014 25.6304 48.3792C25.6555 49.2008 25.6366 50.0225 25.6429 50.8379C25.6429 51.5593 25.6429 52.2806 25.6429 53.0082H43.953V52.2367C43.953 50.9822 43.9405 49.7277 43.953 48.4795C43.9656 47.6014 44.5489 47.018 45.3456 47.0369C46.1234 47.0494 46.6628 47.6139 46.6754 48.467C46.6942 49.4455 46.6754 50.424 46.6754 51.4025V53.0145H51.1416C51.1416 50.8442 51.2921 48.6928 51.1039 46.579C50.8593 43.8818 48.9273 41.9186 46.2927 41.2913C46.0293 41.2286 45.7658 41.1596 45.4961 41.0906C43.9154 40.708 42.3284 40.3254 40.7539 39.9428C39.7126 42.9535 37.7618 44.6157 35.2026 44.7286C32.2105 44.8603 30.4416 43.5369 28.842 39.9302C27.0668 40.363 25.2791 40.7958 23.4976 41.2412C20.2672 42.044 18.4732 44.3146 18.4418 47.6327C18.4293 49.2259 18.4418 50.8191 18.4418 52.4186C18.4418 52.613 18.4732 52.8075 18.4983 53.0207H22.908H22.9143ZM29.1682 25.8424C29.1682 26.7958 29.1368 27.6363 29.1682 28.4706C29.2623 30.7161 30.3224 32.3845 32.3296 33.363C34.3432 34.3478 36.3442 34.1596 38.1256 32.8111C40.503 31.0171 40.6034 28.8594 40.3023 25.855C39.0226 25.855 37.7493 25.8236 36.4759 25.8612C35.1022 25.9114 33.7912 25.8173 32.7499 24.7197C31.7588 25.7609 30.5482 25.9616 29.1619 25.8361M29.1619 23.0763C29.9335 23.1704 30.5607 23.1892 31.0626 22.5243C32.2167 20.9938 33.1827 21.0189 34.4561 22.5055C34.7007 22.7878 35.1085 23.0763 35.4535 23.0951C36.7896 23.1578 38.1382 23.1453 39.4806 23.1076C40.434 23.0826 41.2934 22.3738 41.3498 21.4329C41.4376 19.9652 41.3749 18.4912 41.3749 17.0171C41.2871 16.9921 41.2244 16.967 41.1554 16.967C38.4957 16.967 35.8298 16.9544 33.1702 16.967C32.4237 16.967 31.9846 17.4123 31.8466 18.1775C31.6334 19.3818 31.5079 19.5136 30.3349 19.7456C29.5885 19.8962 29.187 20.3478 29.1682 21.113C29.1494 21.7465 29.1682 22.3801 29.1682 23.0763M37.8308 36.1229C35.7546 36.8254 33.8602 36.8191 31.9282 36.1856C31.7965 36.9508 31.6396 37.6345 31.5644 38.3308C31.3699 40.0557 32.5994 41.6928 34.2679 41.9625C35.9992 42.2385 37.743 41.1659 37.9876 39.4473C38.1382 38.406 37.8998 37.3146 37.8308 36.1229Z" fill="#FF8A00"/>
<path id="Vector_4" d="M21.735 3.42482C21.3398 3.09238 20.9195 2.79131 20.5557 2.42751C19.8908 1.75636 19.8783 0.947222 20.4867 0.376434C21.0638 -0.169265 21.8479 -0.131631 22.494 0.514426C23.6356 1.656 24.771 2.81013 25.8938 3.97679C26.5525 4.66048 26.5525 5.4069 25.8938 6.09059C24.771 7.25726 23.6356 8.41138 22.494 9.55296C21.8542 10.1927 21.0513 10.2241 20.4805 9.68468C19.8845 9.12016 19.8971 8.31102 20.562 7.62733C20.9133 7.2698 21.3085 6.96245 21.6848 6.63002C21.6535 6.57984 21.6221 6.52339 21.5907 6.47321H6.38564V7.31998C6.38564 13.5171 6.38564 19.7142 6.38564 25.9114C6.38564 27.1847 5.94654 27.8182 5.05582 27.837C4.14 27.8558 3.65073 27.1972 3.65073 25.9051C3.65073 19.1372 3.65073 12.3755 3.65073 5.60762C3.65073 4.07088 4.04591 3.68199 5.60154 3.68199H21.528C21.597 3.60045 21.666 3.51891 21.735 3.43109" fill="#FF8A00"/>
<path id="Vector_5" d="M6.42328 48.2599V63.5896H7.23246C12.972 63.5896 18.7178 63.5896 24.4574 63.5896C24.7271 63.5896 25.0094 63.5833 25.2728 63.6335C25.9754 63.7778 26.4333 64.3925 26.3705 65.0699C26.3078 65.7661 25.7809 66.2679 25.0595 66.3118C24.9027 66.3244 24.7396 66.3181 24.5828 66.3181C18.2035 66.3181 11.8241 66.3181 5.44473 66.3181C4.08355 66.3181 3.657 65.8853 3.657 64.5054C3.657 59.4247 3.657 54.3441 3.657 49.2634V48.2661C3.18655 48.7115 2.83528 49.0376 2.484 49.3701C1.76891 50.0412 0.940912 50.0914 0.370094 49.4893C-0.175633 48.9122 -0.112906 48.0905 0.552003 47.4319C1.68109 46.3091 2.82273 45.1927 3.97064 44.0824C4.67318 43.405 5.36946 43.3987 6.07828 44.0824C7.245 45.2052 8.39918 46.3342 9.54082 47.4821C10.1744 48.1156 10.212 48.931 9.68509 49.4955C9.13937 50.0726 8.29255 50.0538 7.62137 49.4265C7.245 49.0815 6.88746 48.7115 6.42328 48.2599Z" fill="#FF8A00"/>
<path id="Vector_6" d="M62.5767 23.0008V6.41028C61.6672 6.41028 60.7639 6.41655 59.8669 6.41028C59.5721 6.41028 59.271 6.41028 58.9887 6.33501C58.3238 6.15311 57.9475 5.5635 58.0165 4.87981C58.0855 4.2463 58.5747 3.71942 59.2334 3.70687C60.8517 3.67551 62.4701 3.67551 64.0822 3.70687C64.7471 3.71942 65.1736 4.13967 65.2928 4.79827C65.3493 5.0868 65.343 5.38788 65.343 5.68268C65.343 11.1961 65.343 16.7033 65.343 22.2167V23.2078C65.8448 22.7185 66.2024 22.361 66.5725 22.0097C67.2625 21.3637 68.0654 21.3449 68.6299 21.947C69.1568 22.5115 69.1129 23.3269 68.4794 23.9542C67.3377 25.0958 66.1835 26.2373 65.0231 27.3538C64.3394 28.0124 63.5992 28.0124 62.9092 27.3476C61.7299 26.2122 60.5632 25.0581 59.4027 23.8977C58.8068 23.3019 58.788 22.4864 59.3086 21.9407C59.8669 21.3574 60.6573 21.3637 61.3159 21.9596C61.6985 22.3108 62.0812 22.6683 62.4638 23.0196C62.4701 23.0259 62.5015 23.0196 62.5642 23.0008" fill="#FF8A00"/>
<path id="Vector_7" d="M6.38881e-06 35.6523C0.0125518 32.8736 2.28328 30.6218 5.05582 30.6469C7.82837 30.672 10.0489 32.9426 10.0301 35.7401C10.0113 38.4749 7.74682 40.7204 5.00564 40.7204C2.23937 40.7204 -0.0125391 38.4373 6.38881e-06 35.6586M7.29519 35.6774C7.29519 34.4041 6.25391 33.3692 4.9931 33.388C3.74482 33.4005 2.74746 34.4041 2.73492 35.6586C2.72237 36.9382 3.73228 37.9794 4.99937 37.9919C6.25391 37.9982 7.29519 36.9507 7.29519 35.6837" fill="#FF8A00"/>
<path id="Vector_8" d="M68.9875 35.6649C68.9875 38.4499 66.7356 40.7205 63.9693 40.7142C61.2281 40.708 58.9762 38.4687 58.9636 35.7214C58.9511 32.9302 61.1779 30.6596 63.9505 30.647C66.723 30.6345 68.9875 32.8863 68.9875 35.6712M66.2526 35.7026C66.2651 34.4167 65.2552 33.3881 63.9818 33.3818C62.7461 33.3818 61.7174 34.3854 61.6986 35.621C61.6735 36.9069 62.6708 37.9481 63.9379 37.9795C65.1925 38.0108 66.2463 36.9759 66.2588 35.6963" fill="#FF8A00"/>
<path id="Vector_9" d="M34.4059 0.00615553C37.1659 0.0249727 39.4366 2.33322 39.4053 5.0868C39.3739 7.82157 37.1032 10.0671 34.3683 10.0671C31.6083 10.0671 29.3187 7.76512 29.3313 5.0178C29.3501 2.25168 31.6396 -0.00638927 34.4059 0.00615553ZM36.6704 5.05544C36.6829 3.80723 35.6291 2.74092 34.3745 2.74092C33.12 2.74092 32.0599 3.79469 32.0662 5.04917C32.0725 6.27856 33.0886 7.30723 34.3306 7.33232C35.5789 7.35741 36.6578 6.30992 36.6704 5.05544Z" fill="#FF8A00"/>
<path id="Vector_10" d="M45.5776 3.68195C46.1673 3.68195 46.7569 3.66313 47.3466 3.68195C48.1244 3.71331 48.6952 4.29664 48.7015 5.01797C48.7077 5.7393 48.1432 6.36654 47.3716 6.38535C46.1673 6.42299 44.9629 6.42299 43.7648 6.38535C42.9933 6.36026 42.435 5.72675 42.4475 5.00542C42.4601 4.27783 43.0246 3.72585 43.8087 3.67567C43.8526 3.67567 43.9028 3.67567 43.9467 3.67567C44.4925 3.67567 45.0382 3.67567 45.5839 3.67567L45.5776 3.68195Z" fill="#FF8A00"/>
<path id="Vector_11" d="M53.3182 3.68823C54.0835 3.68823 54.7296 4.33429 54.7107 5.06816C54.6919 5.78949 54.0584 6.38537 53.3182 6.38537C52.578 6.38537 51.9884 5.78949 51.9884 5.0368C51.9884 4.27784 52.5717 3.68823 53.3119 3.68823" fill="#FF8A00"/>
</g>
<defs>
<clipPath id="clip0_3_1013">
<rect width="69" height="70" fill="white"/>
</clipPath>
</defs>
</svg>
