<svg width="118" height="105" viewBox="0 0 118 105" fill="none" xmlns="http://www.w3.org/2000/svg">
<g id="Layer_1" clip-path="url(#clip0_2_269)">
<path id="Vector" d="M94.5728 21.1409C94.5728 22.229 94.5728 23.3031 94.5728 24.3773C94.5728 24.6911 94.8038 24.6074 94.9678 24.6074C96.9198 24.6074 98.8752 24.6074 100.827 24.6074C101.092 24.6074 101.36 24.6074 101.621 24.6423C102.535 24.7609 103.201 25.4793 103.268 26.4383C103.308 27.0173 103.318 27.5997 103.318 28.1821C103.318 46.3028 103.322 64.4236 103.318 82.5409C103.318 83.0047 103.305 83.472 103.281 83.9358C103.221 85.0553 102.528 85.7633 101.467 85.8051C101.159 85.8156 100.854 85.8225 100.546 85.8225C72.8832 85.8225 45.2172 85.8225 17.5545 85.8225C17.1795 85.8225 16.8012 85.8156 16.4262 85.7981C15.5088 85.7528 14.799 85.0658 14.7152 84.1067C14.6717 83.615 14.665 83.1198 14.665 82.6281C14.6617 64.3922 14.6583 46.1563 14.6617 27.9205C14.6617 27.3974 14.6617 26.8743 14.7086 26.3546C14.7856 25.4688 15.3715 24.8236 16.2186 24.6807C16.5199 24.6283 16.828 24.6249 17.136 24.6214C19.088 24.6144 21.0433 24.6144 22.9953 24.6109C23.1192 24.6109 23.2431 24.6005 23.4038 24.59V21.1095C23.2364 21.1095 23.0723 21.1095 22.9083 21.1095C19.992 21.1095 17.0757 21.1095 14.1628 21.1095C12.4485 21.1095 11.3537 22.1313 11.2834 23.9169C11.2197 25.5839 11.2599 27.2579 11.2499 28.9284C11.2499 29.4061 11.2465 29.8874 11.2197 30.3652C11.1561 31.4882 10.4798 32.217 9.50213 32.231C8.59812 32.2449 7.79455 31.4637 7.78786 30.4036C7.77447 27.9937 7.65393 25.563 7.9017 23.1776C8.24991 19.8052 11.0825 17.6116 13.7175 17.5454C16.7978 17.4686 19.8848 17.5175 22.9652 17.5105C23.0991 17.5105 23.2364 17.5105 23.4406 17.5105C23.4406 16.8339 23.4607 16.1992 23.4373 15.5645C23.3736 13.8731 24.6694 12.0491 26.7788 12.1468C27.502 12.1817 28.2285 12.1607 28.9551 12.1851C29.2229 12.1956 29.3167 12.1189 29.3167 11.819C29.2999 9.20338 29.2932 6.5878 29.3066 3.97221C29.3066 3.41074 29.32 2.82484 29.4673 2.29127C29.9729 0.435945 31.791 -0.41848 33.522 0.240648C36.1101 1.22411 38.7217 2.13782 41.3233 3.07594C44.7016 4.29655 48.0799 5.52064 51.4616 6.73427C53.8287 7.58521 56.1992 8.42917 58.5764 9.25221C58.8443 9.34637 59.1925 9.34985 59.4604 9.25918C61.3119 8.62446 63.1501 7.95836 64.9916 7.29924C66.9402 6.60175 68.8888 5.90775 70.8341 5.20677C71.3866 5.00799 71.9223 4.75689 72.4848 4.60344C73.3855 4.35583 74.0417 4.74643 74.41 5.67757C74.7281 6.48317 74.4703 7.3097 73.727 7.77353C73.4323 7.95836 73.1109 8.11181 72.7828 8.23038C70.0507 9.22082 67.3119 10.2008 64.5764 11.1773C63.4715 11.5714 62.3632 11.9585 61.2449 12.3072C60.8365 12.4328 60.6958 12.635 60.6992 13.071C60.7092 17.0955 60.6992 21.12 60.6992 25.1445C60.6992 34.6478 60.6992 44.1511 60.6992 53.6509C60.6992 54.3588 60.6992 55.0703 60.6992 55.8514C60.9168 55.7922 61.101 55.7573 61.2751 55.6945C64.4324 54.5576 67.5864 53.4137 70.7437 52.2768C74.3732 50.969 78.006 49.6647 81.6354 48.3569C82.7269 47.9628 83.815 47.5618 84.9065 47.1712C85.1309 47.091 85.228 46.9759 85.228 46.7039C85.2179 35.9381 85.2112 25.1689 85.2146 14.4032C85.2146 10.989 85.2347 7.57474 85.2447 4.16054C85.2447 4.03848 85.2246 3.91293 85.2079 3.73158C84.9333 3.82225 84.7124 3.88851 84.4914 3.96524C83.1253 4.45348 81.7626 4.96962 80.3865 5.42997C79.4155 5.7543 78.622 5.33929 78.247 4.38722C77.9289 3.58162 78.3039 2.60514 79.1008 2.24593C79.5863 2.02622 80.0852 1.84487 80.584 1.66353C81.9233 1.1718 83.2659 0.697503 84.6019 0.195311C86.6141 -0.561465 88.6933 0.979986 88.7034 3.27124C88.7168 6.06119 88.7134 8.85115 88.7 11.6411C88.7 12.0561 88.7904 12.1921 89.2123 12.1712C90.0326 12.1328 90.8563 12.1642 91.6799 12.1712C93.1866 12.1817 94.5359 13.7092 94.556 15.2925C94.5627 15.8888 94.5928 16.4852 94.5694 17.078C94.556 17.4163 94.6297 17.5244 94.9779 17.5209C97.9343 17.5035 100.894 17.5454 103.851 17.5C106.345 17.4617 109.201 19.2751 109.998 22.515C110.138 23.0869 110.222 23.6902 110.222 24.2761C110.232 44.866 110.232 65.4559 110.229 86.0457C110.229 87.214 110.058 88.3579 109.399 89.4495C109.63 89.4495 109.773 89.4495 109.921 89.4495C111.106 89.4704 112.291 89.4983 113.473 89.5158C115.375 89.5437 117.551 91.3362 117.806 93.767C118.054 96.1489 118.127 98.5587 117.749 100.934C117.391 103.18 115.345 104.902 113.155 104.983C112.78 104.997 112.402 105 112.027 105C101.969 105 91.9109 105 81.853 105C81.6588 105 81.4613 105 81.2671 104.993C80.3497 104.955 79.7169 104.439 79.4691 103.525C79.2414 102.691 80.0149 101.575 80.9624 101.401C81.2637 101.345 81.5718 101.335 81.8798 101.335C92.0214 101.335 102.163 101.335 112.305 101.335C112.556 101.335 112.807 101.331 113.058 101.321C113.912 101.282 114.491 100.745 114.511 99.8525C114.548 98.1263 114.558 96.3965 114.528 94.6667C114.511 93.6519 113.808 92.9893 112.827 92.9439C112.73 92.9404 112.633 92.9439 112.536 92.9439C98.7379 92.9439 84.94 92.9439 71.1455 92.9439C70.5763 92.9439 70.5696 92.9439 70.6065 93.5403C70.7069 95.1166 70.3286 96.5081 69.1534 97.5857C68.3297 98.3425 67.3587 98.7679 66.2605 98.7714C61.4492 98.7854 56.6345 98.7889 51.8232 98.7714C49.831 98.7645 47.4069 97.2649 47.4002 93.9902C47.4002 93.6588 47.4002 93.331 47.4002 92.9439H46.9013C33.0767 92.9439 19.252 92.9439 5.42739 92.9439C4.09816 92.9439 3.46201 93.5856 3.45196 94.9597C3.44527 96.4418 3.45196 97.924 3.46535 99.4062C3.46535 99.6921 3.49549 99.9955 3.58589 100.261C3.85709 101.059 4.23209 101.324 5.11601 101.328C8.05906 101.338 11.0021 101.335 13.9452 101.335C33.6157 101.335 53.2863 101.335 72.9569 101.335C73.275 101.335 73.5997 101.345 73.9145 101.401C74.7883 101.554 75.4848 102.458 75.4245 103.319C75.3642 104.135 74.5305 104.944 73.6968 104.99C73.4457 105.003 73.1946 105.003 72.9435 105.003C50.5542 105.003 28.1616 105.003 5.77225 105.003C4.82137 105.003 3.89392 104.944 3.00665 104.487C1.44975 103.689 0.428553 102.433 0.227662 100.662C-0.0401927 98.2971 -0.0569336 95.9048 0.257796 93.5403C0.522302 91.542 2.45755 89.5855 4.53008 89.5262C5.6852 89.4913 6.84367 89.4774 8.00214 89.4565C8.18294 89.4565 8.36375 89.4565 8.52781 89.4565C8.33026 88.8462 8.09254 88.2603 7.96196 87.65C7.84478 87.1024 7.7979 86.527 7.7979 85.9655C7.79121 70.1709 7.79121 54.3763 7.79121 38.5816C7.79121 37.5005 8.15281 36.8553 8.92289 36.5519C9.97422 36.1404 11.0356 36.7612 11.2264 37.919C11.27 38.1875 11.2733 38.47 11.2733 38.7455C11.2733 54.4809 11.2733 70.2197 11.2633 85.9551C11.2633 86.9525 11.357 87.9046 12.1371 88.623C12.6896 89.1286 13.3324 89.4146 14.0657 89.4634C14.3302 89.4809 14.5947 89.4634 14.8592 89.4634C44.2127 89.4634 73.5663 89.4634 102.92 89.4669C103.747 89.4669 104.56 89.4948 105.32 89.0554C106.164 88.5672 106.65 87.8348 106.733 86.8374C106.77 86.4189 106.76 85.9969 106.76 85.5749C106.76 65.2606 106.76 44.9462 106.753 24.6318C106.753 24.2099 106.76 23.7844 106.69 23.3729C106.482 22.1209 105.444 21.1374 104.209 21.127C101.041 21.0956 97.8741 21.1165 94.71 21.12C94.6832 21.12 94.6598 21.1374 94.5962 21.1583L94.5728 21.1409ZM99.816 28.2797C99.6452 28.2797 99.4946 28.2797 99.3439 28.2797C97.9075 28.2797 96.4712 28.2902 95.0348 28.2658C94.6699 28.2588 94.556 28.3564 94.556 28.747C94.5694 31.3173 94.556 33.891 94.556 36.4613C94.556 43.2478 94.556 50.0344 94.5493 56.8175C94.5493 58.4391 93.5951 59.6876 92.1152 60.0259C91.7234 60.1166 91.315 60.148 90.9132 60.148C69.6254 60.155 48.3377 60.1515 27.05 60.1515C26.9261 60.1515 26.7988 60.1515 26.675 60.1515C24.6928 60.0713 23.444 58.7251 23.4339 56.664C23.4339 55.9526 23.4172 55.2411 23.4172 54.5297C23.4138 45.9576 23.4071 37.3819 23.4172 28.8098C23.4172 28.3529 23.2832 28.2588 22.8748 28.2658C21.4786 28.2902 20.0857 28.2727 18.6895 28.2727C18.5154 28.2727 18.338 28.2727 18.1672 28.2727V82.1119H99.8127V28.2797H99.816ZM57.2204 55.8863C57.2405 55.7294 57.2606 55.6317 57.2606 55.5341C57.264 54.4286 57.264 53.3265 57.264 52.221C57.264 44.737 57.264 37.2564 57.264 29.7723C57.264 24.1785 57.274 18.5846 57.2874 12.9907C57.2874 12.6804 57.2338 12.4816 56.9124 12.37C55.1948 11.7806 53.4839 11.1703 51.7729 10.5635C49.533 9.76835 47.2964 8.96972 45.0598 8.16761C43.061 7.4492 41.0621 6.72381 39.0666 5.99842C37.1883 5.31488 35.3133 4.62088 33.4383 3.93385C33.2341 3.86062 33.0231 3.8083 32.7586 3.72809C32.7486 3.94431 32.7352 4.09776 32.7385 4.2547C32.7486 4.81966 32.772 5.38812 32.772 5.95308C32.772 15.9481 32.772 25.9466 32.772 35.9416C32.772 39.4012 32.772 42.8572 32.772 46.3168C32.772 47.077 32.7653 47.077 33.4517 47.3246C34.9383 47.8547 36.4282 48.3813 37.9148 48.9149C41.3233 50.1355 44.7317 51.3596 48.1368 52.5872C50.9392 53.5951 53.7383 54.6064 56.5374 55.6178C56.755 55.6945 56.966 55.7887 57.2171 55.8898L57.2204 55.8863ZM48.6658 56.6012C48.4951 56.5106 48.4047 56.4443 48.3042 56.406C46.5632 55.7573 44.8221 55.1016 43.0777 54.4669C41.2663 53.8078 39.4483 53.1661 37.6302 52.5174C35.7753 51.8548 33.9372 51.1364 32.0622 50.5366C30.1939 49.9402 29.2899 48.7963 29.2899 46.7736C29.2899 36.6775 29.2932 26.5778 29.2966 16.4817C29.2966 16.255 29.2966 16.0283 29.2966 15.7912H26.8825V56.6012H48.6658ZM88.6933 15.7912C88.6933 16.119 88.6933 16.4084 88.6933 16.6979C88.6933 26.7522 88.6933 36.8065 88.6933 46.8608C88.6933 48.6952 87.8864 49.86 86.2123 50.4494C84.5382 51.0353 82.8642 51.6212 81.1934 52.221C77.5774 53.5183 73.9613 54.8227 70.3486 56.1304C70.044 56.2386 69.7527 56.385 69.4547 56.5141L69.4848 56.6047H91.104V15.7912H88.69H88.6933ZM67.1411 92.9404H66.6188C61.5965 92.9404 56.5776 92.9404 51.5553 92.9404C50.6781 92.9404 50.7852 92.773 50.7852 93.7391C50.7852 94.9841 51.0732 95.1515 52.1546 95.1445C56.5073 95.1201 60.8566 95.1305 65.2092 95.1271C65.5708 95.1271 65.9357 95.1375 66.2973 95.1271C66.7996 95.1096 67.0607 94.9143 67.1277 94.3947C67.1846 93.9413 67.1411 93.474 67.1411 92.9369V92.9404Z" fill="#FFF4E1"/>
<path id="Vector_2" d="M58.995 68.8736C51.5051 68.8736 44.0152 68.8736 36.5253 68.8805C35.9394 68.8805 35.4505 68.6887 35.0822 68.2319C34.6905 67.7436 34.4461 67.1961 34.7139 66.5474C35.0052 65.8465 35.474 65.3687 36.2374 65.2954C36.5287 65.2675 36.8233 65.2641 37.1146 65.2641C51.7863 65.2641 66.4614 65.2641 81.1332 65.2571C81.9535 65.2571 82.613 65.4489 83.1086 66.2057C83.9289 67.4577 82.6767 68.8945 81.6722 68.8805C81.5751 68.8805 81.478 68.8805 81.3809 68.8805C73.9178 68.8805 66.4581 68.8805 58.995 68.8805V68.8736Z" fill="#FFF4E1"/>
<path id="Vector_3" d="M51.0631 76.546C46.2652 76.546 41.4672 76.546 36.6693 76.546C35.8624 76.546 35.2363 76.2251 34.8311 75.4858C34.3222 74.5477 34.9081 73.2015 35.926 72.9783C36.1972 72.919 36.4784 72.8981 36.7563 72.8981C46.2953 72.8946 55.8376 72.8911 65.3766 72.8911C66.3342 72.8911 67.1344 73.4107 67.3621 74.1745C67.7036 75.3254 66.8498 76.5006 65.6244 76.539C64.9547 76.5599 64.2851 76.5425 63.6154 76.5425C59.4302 76.5425 55.2483 76.5425 51.0631 76.5425V76.546Z" fill="#FFF4E1"/>
</g>
<defs>
<clipPath id="clip0_2_269">
<rect width="118" height="105" fill="white"/>
</clipPath>
</defs>
</svg>
