<svg width="111" height="105" viewBox="0 0 111 105" fill="none" xmlns="http://www.w3.org/2000/svg">
<g id="Layer_1" clip-path="url(#clip0_1_229)">
<path id="Vector" d="M25.4019 94.1386C25.4019 92.1504 25.385 90.1655 25.4052 88.1773C25.4322 85.9338 24.7678 83.8851 23.5166 82.0648C22.4509 80.5098 21.2402 79.0489 20.0328 77.5947C18.2319 75.4284 16.404 73.2857 15.0752 70.7803C13.7565 68.295 12.9539 65.6653 12.6537 62.8576C12.3704 60.2178 12.4042 57.5881 12.9876 55.0121C14.458 48.5437 18.0767 43.5865 23.8336 40.2213C26.3293 38.7637 29.0273 37.7998 31.8906 37.4371C36.2479 36.8863 40.4467 37.5077 44.4364 39.4086C48.4059 41.2994 51.5659 44.097 53.9065 47.7947C55.3297 50.0449 56.301 52.4933 56.8507 55.1062C57.5387 58.3807 57.5083 61.6452 56.8507 64.9264C56.0885 68.7517 54.3112 72.0666 51.8661 75.059C50.6351 76.567 49.3603 78.0413 48.1226 79.5459C47.0265 80.8793 46.0181 82.2697 45.3133 83.8583C44.8243 84.9565 44.6219 86.0917 44.6219 87.2806C44.6287 91.7171 44.632 96.1503 44.632 100.587C44.632 102.001 44.0756 103.166 42.9829 104.063C42.2881 104.634 41.4585 104.95 40.5782 104.956C36.855 104.987 33.1317 105.013 29.4118 104.956C27.5434 104.926 25.9516 103.62 25.5469 101.88C25.3783 101.155 25.3816 100.382 25.3715 99.6297C25.3479 97.796 25.3648 95.9623 25.3648 94.1319C25.3749 94.1319 25.3884 94.1319 25.3985 94.1319L25.4019 94.1386ZM39.671 84.8624C40.3422 84.8624 40.9863 84.8423 41.6271 84.8725C41.9846 84.8893 42.1566 84.7617 42.2679 84.4292C42.4905 83.7676 42.7131 83.1026 43.0031 82.4712C43.8867 80.53 45.202 78.8742 46.5544 77.242C48.099 75.3747 49.6537 73.5141 51.1005 71.5729C52.7463 69.3663 53.7446 66.8441 54.264 64.1506C54.5844 62.4949 54.4697 60.8055 54.5034 59.1297C54.5776 55.5629 53.5355 52.3052 51.6739 49.3161C48.8038 44.7183 44.6826 41.7662 39.4012 40.4967C37.3743 40.0097 35.2868 40.0265 33.1992 40.1239C30.174 40.265 27.4018 41.1919 24.8589 42.7402C19.9418 45.7326 16.8154 50.0315 15.6586 55.6939C15.1055 58.3975 15.1258 61.1078 15.544 63.8282C15.7868 65.4134 16.2556 66.9281 16.9065 68.389C17.9621 70.7534 19.5202 72.7819 21.1626 74.7567C22.4509 76.3084 23.7729 77.8365 25.0039 79.4318C26.2113 80.9901 27.1252 82.7197 27.6547 84.6341C27.6817 84.7348 27.8503 84.8423 27.9684 84.8692C28.1404 84.9061 28.3326 84.8692 28.5147 84.8692C29.1117 84.8692 29.712 84.8692 30.3393 84.8692C30.3393 84.6408 30.3393 84.5165 30.3393 84.3889C30.3393 77.813 30.3325 71.2337 30.3393 64.6577C30.3393 64.2883 30.2313 64.1674 29.8637 64.1708C29.051 64.1842 28.2314 64.1909 27.4186 64.1506C24.9567 64.023 22.8961 62.2766 22.4003 59.9223C21.8135 57.1515 23.547 54.2733 26.1978 53.6184C29.3612 52.8325 32.3661 54.6561 32.953 57.756C33.0744 58.3941 33.0811 59.0625 33.0811 59.7174C33.0879 67.3009 33.0845 74.8877 33.0811 82.4712C33.0811 83.1563 33.0912 83.8415 33.071 84.5266C33.0643 84.8087 33.1654 84.8893 33.4386 84.8826C34.4639 84.8591 35.4891 84.8457 36.5144 84.8457C36.7707 84.8457 36.882 84.7718 36.8482 84.5098C36.8347 84.399 36.8482 84.2848 36.8482 84.174C36.8482 76.1001 36.8449 68.0229 36.8482 59.9491C36.8482 59.3211 36.8617 58.6863 36.9494 58.065C37.4216 54.767 40.7469 52.4227 44.3352 53.7964C46.3014 54.5487 47.7719 56.7518 47.7381 58.7434C47.701 60.9735 46.261 63.0289 44.2037 63.8181C43.3741 64.1372 42.5107 64.1808 41.6338 64.1708C40.9796 64.164 40.3253 64.1708 39.6575 64.1708V84.8524L39.671 84.8624ZM28.1943 96.3854C28.1943 97.8296 28.2382 99.257 28.1808 100.678C28.137 101.736 28.852 102.317 29.8131 102.29C31.1891 102.249 32.5651 102.27 33.9411 102.266C36.0456 102.266 38.1534 102.266 40.2579 102.263C41.2426 102.259 41.8227 101.675 41.8362 100.698C41.8429 99.9857 41.8362 99.2704 41.8362 98.5584C41.8362 97.8497 41.8362 97.1377 41.8362 96.3854H28.1977H28.1943ZM28.2247 93.5307H41.7856C41.8092 93.4535 41.8295 93.4132 41.8295 93.3762C41.8295 91.5593 41.8295 89.739 41.8362 87.922C41.8362 87.6466 41.6709 87.6466 41.4753 87.6466C37.0674 87.6466 32.6596 87.6466 28.2213 87.6466V93.5307H28.2247ZM39.671 61.4705C40.6153 61.4705 41.536 61.5511 42.4331 61.4403C43.0031 61.3731 43.6169 61.1246 44.0756 60.7787C44.9963 60.0835 45.1177 59.0524 44.8647 58.0012C44.6388 57.0675 43.9676 56.5134 43.0638 56.2279C41.6001 55.7678 39.8464 56.7619 39.6946 58.2262C39.5867 59.2741 39.6744 60.3454 39.6744 61.4672L39.671 61.4705ZM30.3426 59.8752C30.3426 59.8752 30.3156 59.8752 30.3022 59.8752C30.3022 59.4286 30.3426 58.9752 30.2954 58.5352C30.1133 56.8727 28.9363 56.0902 27.5772 56.1339C26.1135 56.1809 25.1051 57.212 25.0073 58.6326C24.9129 59.9861 25.8032 61.1851 27.2264 61.3933C28.1741 61.531 29.1555 61.4571 30.12 61.4504C30.1942 61.4504 30.3258 61.2489 30.3325 61.138C30.3595 60.7216 30.3426 60.2984 30.3426 59.882V59.8752Z" fill="#FFF4E1"/>
<path id="Vector_2" d="M83.8039 21.3735C83.9928 21.3902 84.1007 21.407 84.2086 21.407C90.404 21.3936 96.6027 21.3735 102.798 21.3701C104.076 21.3701 104.599 21.9242 104.599 23.2106C104.599 25.0309 104.596 26.8478 104.592 28.6681C104.592 28.7487 104.602 28.8327 104.609 28.9368C104.99 28.9972 105.361 29.061 105.732 29.1181C108.083 29.4708 110.487 31.7277 110.916 34.4414C111.496 38.1189 109.216 41.3397 105.489 42.0752C104.896 42.1916 104.6 42.551 104.602 43.1533C104.609 45.8535 104.616 48.5571 104.606 51.2573C104.606 51.5831 104.538 51.929 104.417 52.2279C104.235 52.6713 103.864 52.9265 103.368 52.95C103.044 52.9668 102.724 52.9702 102.4 52.9702C99.6447 52.9702 96.8927 52.9735 94.1374 52.9769C94.0665 52.9769 93.9957 52.9769 93.9283 52.9769C92.4882 52.9567 91.8879 52.0197 92.532 50.7267C93.7023 48.3825 92.3803 45.4874 89.7767 44.8628C88.1275 44.4665 86.6369 44.8997 85.5239 46.2263C84.4211 47.5361 84.2828 49.0407 84.8933 50.6024C85.5172 52.1944 85.0821 52.9299 83.379 52.9467C80.428 52.9769 77.4771 52.9735 74.5261 52.9668C73.3997 52.9668 72.9073 52.4093 72.9073 51.1902C72.9073 46.2364 72.9073 41.2826 72.9073 36.3288C72.9073 34.354 72.9073 32.3826 72.9073 30.4078C72.9073 30.3272 72.8904 30.2466 72.8837 30.1526C67.0998 31.15 62.2164 29.4741 58.338 25.1518C55.5388 22.0351 54.1291 18.2601 54.5607 14.1023C55.559 4.39626 63.9566 -0.95382 71.8382 0.141049C76.8228 0.832899 80.6371 3.43237 83.1159 7.78834C85.5914 12.1342 85.76 16.685 83.8039 21.3735ZM101.8 50.1423C101.81 49.9878 101.82 49.8804 101.82 49.7695C101.82 46.8879 101.82 44.0064 101.82 41.1214C101.82 40.8997 101.84 40.6747 101.86 40.4531C101.911 39.909 102.231 39.5832 102.747 39.4724C103.014 39.4153 103.307 39.4019 103.577 39.4455C104.751 39.6336 105.82 39.3884 106.761 38.6831C108.231 37.5816 108.697 35.6 107.924 33.8906C107.199 32.2852 105.351 31.3717 103.56 31.7344C102.693 31.9091 101.955 31.3952 101.847 30.5321C101.823 30.3373 101.817 30.1425 101.817 29.9477C101.817 28.3255 101.817 26.7034 101.817 25.0779C101.817 24.789 101.817 24.4969 101.817 24.1509C101.567 24.1509 101.358 24.1509 101.152 24.1509C94.9164 24.1409 88.6772 24.1274 82.4414 24.1274C82.293 24.1274 82.0907 24.2315 81.9996 24.3491C80.3943 26.475 78.3539 28.0501 75.9324 29.1517C75.8144 29.2055 75.693 29.3835 75.6829 29.5111C75.6559 29.8704 75.6964 30.2365 75.6964 30.6026C75.6964 36.9972 75.6964 43.3917 75.6863 49.783C75.6863 50.0819 75.7773 50.1625 76.0707 50.1625C77.8683 50.149 79.6658 50.1524 81.4634 50.149C81.5983 50.149 81.7298 50.1356 81.8681 50.1255C81.2476 45.7561 84.4009 42.3943 88.195 42.0316C89.888 41.8703 91.4326 42.3674 92.7782 43.3649C95.0479 45.0475 95.8742 47.3816 95.6348 50.139H101.793L101.8 50.1423ZM57.3296 15.3214C57.1677 21.8269 62.9111 27.899 70.1823 27.6975C76.4147 27.5262 82.3774 22.5523 82.374 15.2207C82.374 8.08389 76.671 2.74052 69.8484 2.73381C62.7492 2.72709 57.1475 8.53057 57.3262 15.3248L57.3296 15.3214Z" fill="#FFF4E1"/>
<path id="Vector_3" d="M81.8007 64.7552C81.7973 62.4613 82.691 60.6377 84.4043 59.2137C85.6959 58.139 87.2136 57.5647 88.8728 57.6419C92.2116 57.7998 95.4729 60.1641 95.7123 64.7317C95.8405 64.7384 95.9754 64.7518 96.1103 64.7518C98.3868 64.7518 100.663 64.7451 102.936 64.7451C104.042 64.7451 104.585 65.2523 104.589 66.3438C104.602 69.0574 104.602 71.7711 104.596 74.4881C104.596 75.4117 104.241 75.902 103.449 76.0465C103.179 76.0968 102.865 76.0263 102.596 75.939C101.557 75.5964 100.522 75.3479 99.4221 75.6434C97.6246 76.1271 96.3801 77.7694 96.4239 79.6233C96.4712 81.5578 97.4087 82.9213 99.2265 83.6031C100.188 83.9624 101.172 83.9725 102.13 83.5191C102.319 83.4284 102.515 83.3445 102.714 83.2807C103.648 82.975 104.494 83.5325 104.572 84.5132C104.602 84.8759 104.596 85.2387 104.596 85.6047C104.599 88.5569 104.599 91.509 104.602 94.4611C104.602 94.6425 104.602 94.8238 104.589 95.0052C104.528 95.7608 103.978 96.3217 103.223 96.3385C101.958 96.3654 100.694 96.3586 99.4289 96.362C97.7021 96.362 95.972 96.362 94.2453 96.362C94.0497 96.362 93.8507 96.362 93.6551 96.3486C92.5691 96.278 91.9756 95.3545 92.3971 94.3536C92.6804 93.6786 92.9469 93.0169 92.9435 92.2646C92.9334 89.8633 90.947 88.0766 88.5423 88.127C85.6015 88.1874 83.6657 91.247 84.927 94.0883C85.0349 94.3301 85.1563 94.5786 85.1901 94.8339C85.2879 95.5963 84.6639 96.2915 83.8242 96.3284C82.8563 96.3687 81.885 96.362 80.9171 96.362C78.8092 96.362 76.7014 96.3687 74.5936 96.3553C73.4469 96.3486 72.8938 95.7877 72.8938 94.6391C72.8938 85.2487 72.8938 75.8617 72.8938 66.4714C72.8938 65.259 73.3963 64.7619 74.6138 64.7586C76.6778 64.7552 78.7452 64.7586 80.8091 64.7586C81.116 64.7586 81.4263 64.7586 81.7939 64.7586L81.8007 64.7552ZM75.7301 67.5293C75.7166 67.7006 75.6998 67.8215 75.6998 67.9458C75.6998 76.342 75.6998 84.7382 75.6863 93.1345C75.6863 93.5006 75.8077 93.5778 76.1449 93.5744C77.7874 93.561 79.4331 93.5677 81.0756 93.5677C81.3386 93.5677 81.6017 93.5677 81.9052 93.5677C81.5848 91.4955 82.0098 89.6517 83.2745 88.0598C84.5425 86.4645 86.1984 85.5241 88.2759 85.3864C90.2016 85.2588 91.8879 85.8667 93.3077 87.1329C95.2233 88.8356 95.8641 91.0354 95.6247 93.5375H101.78V86.5048C99.7864 86.7198 97.9854 86.3201 96.4239 85.111C94.8557 83.8986 93.9114 82.3067 93.7225 80.3151C93.5438 78.4612 94.0261 76.782 95.2233 75.3513C96.9231 73.316 99.1321 72.4764 101.783 72.8089V67.536C101.577 67.536 101.412 67.536 101.247 67.536C98.9972 67.536 96.7511 67.5293 94.5016 67.536C93.1256 67.536 92.5624 66.8912 92.8389 65.5411C93.3044 63.2808 92.0565 61.5344 90.694 60.8593C88.1343 59.5898 85.1698 60.9567 84.6538 63.7141C84.5223 64.4059 84.6471 65.1549 84.7078 65.8736C84.7921 66.8711 84.2424 67.5159 83.2407 67.536C82.8765 67.5428 82.5089 67.536 82.1447 67.536C80.0233 67.536 77.9054 67.536 75.7267 67.536L75.7301 67.5293Z" fill="#FFF4E1"/>
<path id="Vector_4" d="M65.4911 61.5646C64.5232 61.5646 63.5553 61.5747 62.5874 61.5646C61.6026 61.5512 60.9146 60.7015 61.1372 59.7913C61.2586 59.301 61.7476 58.861 62.267 58.7972C62.5435 58.7636 62.8268 58.7468 63.1067 58.7468C64.7626 58.7435 66.4186 58.7267 68.0745 58.7569C68.4623 58.7636 68.8974 58.8509 69.2245 59.0424C69.781 59.3681 69.9698 59.9895 69.7978 60.5302C69.6225 61.081 68.9851 61.5612 68.3982 61.5646C67.4303 61.5713 66.4624 61.5646 65.4945 61.5646H65.4911Z" fill="#FFF4E1"/>
<path id="Vector_5" d="M4.39106 58.7602C5.41631 58.7602 6.44156 58.7737 7.4668 58.7569C8.51566 58.7401 9.08562 60.0801 8.46845 60.8996C8.15817 61.3093 7.73323 61.5579 7.21049 61.5612C5.28815 61.5713 3.36244 61.578 1.4401 61.5612C0.839788 61.5545 0.364262 61.2657 0.118067 60.6914C-0.118009 60.1406 -0.00671604 59.5092 0.448575 59.1162C0.644182 58.9449 0.937592 58.8039 1.19053 58.7938C2.25625 58.7569 3.32197 58.7804 4.39106 58.7804C4.39106 58.777 4.39106 58.7703 4.39106 58.7669V58.7602Z" fill="#FFF4E1"/>
<path id="Vector_6" d="M58.9214 47.7578C58.1727 47.7612 57.6331 47.3749 57.451 46.8376C57.2723 46.3036 57.424 45.7125 57.9299 45.4001C59.1339 44.6579 60.3649 43.9594 61.5857 43.2474C62.1422 42.9216 62.702 42.6059 63.2652 42.2902C64.0139 41.8737 64.7525 42.082 65.1977 42.8309C65.5484 43.422 65.3259 44.1609 64.6244 44.584C63.7138 45.1348 62.783 45.6554 61.8623 46.1894C61.1709 46.5891 60.4897 47.0055 59.7915 47.3884C59.4644 47.5664 59.1035 47.6772 58.9181 47.7545L58.9214 47.7578Z" fill="#FFF4E1"/>
<path id="Vector_7" d="M33.5904 29.6958C33.5904 28.7319 33.5904 27.7646 33.5904 26.8007C33.5904 25.9275 34.0659 25.417 34.909 25.3835C35.6679 25.3532 36.2715 25.9309 36.2884 26.7638C36.312 27.9661 36.2985 29.1718 36.2985 30.3742C36.2985 31.1433 36.3154 31.9124 36.2918 32.6815C36.2749 33.2625 35.968 33.6789 35.4486 33.9375C34.9259 34.1995 34.4672 34.0383 34.0423 33.7125C33.7017 33.4539 33.5904 33.0878 33.5904 32.6781C33.5904 31.684 33.5904 30.6899 33.5904 29.6991V29.6958Z" fill="#FFF4E1"/>
<path id="Vector_8" d="M21.1491 37.736C20.4173 37.6722 20.0632 37.202 19.7596 36.6882C19.2403 35.8082 18.7411 34.9216 18.2319 34.0383C17.8272 33.3364 17.4157 32.6378 17.0144 31.9359C16.5726 31.1601 16.7648 30.4078 17.4967 30.0115C18.1543 29.6555 18.9941 29.9376 19.4022 30.6496C19.817 31.3784 20.2318 32.1038 20.65 32.8326C21.2132 33.8133 21.8068 34.7805 22.3329 35.778C22.7511 36.574 22.397 37.3565 21.5403 37.6554C21.3987 37.7058 21.2436 37.7192 21.1457 37.736H21.1491Z" fill="#FFF4E1"/>
<path id="Vector_9" d="M53.0735 31.2071C52.9689 31.4926 52.9015 31.7982 52.7531 32.0568C51.8189 33.6991 50.8645 35.328 49.9168 36.9636C49.5256 37.642 48.7296 37.9073 48.0821 37.5681C47.3975 37.2121 47.1412 36.4665 47.5324 35.7478C48.2137 34.4951 48.9455 33.2692 49.6605 32.0333C49.9741 31.4892 50.2776 30.9351 50.6216 30.4112C50.9656 29.8872 51.5727 29.7126 52.1764 29.9107C52.6957 30.082 53.0161 30.5656 53.0735 31.2071Z" fill="#FFF4E1"/>
<path id="Vector_10" d="M4.51918 43.3683C4.55965 42.3809 5.5478 41.7495 6.36395 42.1996C8.19186 43.2105 9.99617 44.2617 11.7937 45.3263C12.4075 45.689 12.5559 46.3674 12.2558 47.0156C11.9758 47.6202 11.3452 47.9291 10.674 47.6739C10.1041 47.459 9.57797 47.1197 9.04174 46.8175C7.78716 46.1055 6.5427 45.37 5.28474 44.6613C4.74514 44.3591 4.53942 43.8956 4.51918 43.3683Z" fill="#FFF4E1"/>
<path id="Vector_11" d="M57.4173 73.9238C57.4173 72.8693 58.4459 72.2009 59.3194 72.661C60.5976 73.3327 61.8387 74.0649 63.0933 74.7802C63.6059 75.0724 64.1185 75.3613 64.6109 75.6837C65.3461 76.1639 65.5552 76.8088 65.2045 77.4234C64.7997 78.1354 64.0072 78.3839 63.2484 77.9574C61.5115 76.9868 59.7983 75.9792 58.0783 74.975C57.6534 74.7265 57.3937 74.3571 57.4173 73.9238Z" fill="#FFF4E1"/>
<path id="Vector_12" d="M6.03682 78.1689C5.27801 78.179 4.77887 77.8465 4.61025 77.3428C4.40452 76.7248 4.53605 76.1303 5.05205 75.8113C6.19533 75.106 7.3656 74.4377 8.52912 73.766C9.19688 73.3797 9.86127 72.9935 10.5493 72.6476C11.1597 72.342 11.9489 72.5871 12.2322 73.1211C12.5829 73.7828 12.3772 74.619 11.7499 74.9985C10.9809 75.462 10.2019 75.9053 9.42622 76.352C8.59995 76.8289 7.78379 77.3159 6.94741 77.776C6.61015 77.9607 6.2358 78.085 6.03345 78.1689H6.03682Z" fill="#FFF4E1"/>
<path id="Vector_13" d="M68.3476 17.1652C69.6461 15.8487 70.8905 14.5792 72.1451 13.3164C73.1029 12.3525 74.0911 11.4155 75.0354 10.4382C75.5952 9.86052 76.4619 9.97135 76.8768 10.4046C77.4636 11.0125 77.5277 11.6808 76.9307 12.2954C75.6121 13.6523 74.2631 14.9789 72.9242 16.3155C71.7337 17.5045 70.5398 18.69 69.3425 19.8722C68.6309 20.5775 67.9295 20.5775 67.2178 19.8722C65.7643 18.4314 64.3074 16.994 62.8673 15.5397C62.24 14.905 62.1928 14.1661 62.6953 13.5884C63.2383 12.9604 63.9768 12.9 64.5738 13.4743C65.6125 14.4785 66.6277 15.5061 67.6529 16.5204C67.8485 16.7152 68.0576 16.8999 68.3409 17.1585L68.3476 17.1652Z" fill="#FFF4E1"/>
</g>
<defs>
<clipPath id="clip0_1_229">
<rect width="111" height="105" fill="white"/>
</clipPath>
</defs>
</svg>
