<svg width="107" height="105" viewBox="0 0 107 105" fill="none" xmlns="http://www.w3.org/2000/svg">
<path id="Vector" d="M78.3218 30.4791C79.6082 32.5849 80.6656 34.7277 81.3873 37.009C82.1058 39.2749 82.6047 41.587 82.7804 43.9884C82.8745 43.9976 82.9749 44.0191 83.0753 44.0191C87.6123 44.0253 92.1494 44.0284 96.6833 44.0345C96.8966 44.0345 97.0786 44.0345 97.1665 43.7636C97.4834 42.7754 98.1831 42.0642 99.0334 41.51C102.265 39.4011 106.087 41.4269 106.862 44.6472C107.433 47.0147 106.102 49.3853 103.702 50.4105C101.01 51.5619 97.9446 49.8994 97.1539 47.6366C97.0598 47.3718 96.8935 47.3995 96.7021 47.3995C94.1386 47.3995 91.5783 47.3995 89.0149 47.3995C87.0789 47.3995 85.1461 47.3995 83.2102 47.3995C83.0816 47.3995 82.9529 47.3995 82.7898 47.3995C82.4854 51.5558 81.4061 55.4811 79.5298 59.2617H80.0035C83.7028 59.2617 87.4021 59.2525 91.1014 59.2648C92.8898 59.271 94.4367 59.8498 95.5443 61.2998C96.2346 62.205 96.6299 63.2148 96.6268 64.3662C96.6205 69.7139 96.6268 75.0646 96.6268 80.4123C96.6268 80.7202 96.5421 81.0958 96.6895 81.3113C96.8182 81.4991 97.2198 81.5114 97.5053 81.5853C99.2718 82.0286 100.922 82.7183 102.337 83.8635C105.635 86.5358 107.31 89.9747 106.903 94.1679C106.482 98.4812 104.192 101.686 100.254 103.69C97.9979 104.836 95.5788 105.27 93.0718 104.823C89.2753 104.149 86.3447 102.179 84.4213 98.8722C83.0408 96.4985 82.5042 93.9247 83.0157 91.237C83.7311 87.4718 85.8082 84.6117 89.247 82.7337C90.3923 82.1087 91.6348 81.7762 92.8867 81.4652C93.1377 81.4037 93.2224 81.3205 93.2224 81.0589C93.2099 75.7481 93.2099 70.4374 93.2067 65.1266C93.2067 64.8311 93.2067 64.5355 93.1973 64.2431C93.1597 63.3502 92.4349 62.6545 91.5187 62.6545C86.9566 62.6514 82.3944 62.6514 77.8323 62.6606C77.6942 62.6606 77.506 62.7499 77.4307 62.8576C75.7489 65.2929 73.8098 67.5003 71.466 69.3475C70.3145 70.2557 69.3136 71.2963 68.6014 72.574C68.2719 73.1651 68.0146 73.7901 67.6695 74.5136C68.159 74.5136 68.5574 74.5228 68.9559 74.5136C70.3741 74.4705 71.5633 75.0215 72.5642 75.9452C74.4719 77.7062 74.7198 80.3292 73.2325 82.4412C72.8089 83.0415 72.7525 82.8537 73.22 83.4787C75.3159 86.2896 73.7534 89.7993 71.2056 90.9137C70.4714 91.2339 69.7403 91.434 68.9402 91.4217C68.4194 91.4125 67.8954 91.4217 67.3369 91.4217C67.1423 96.1598 65.1248 99.9497 61.1526 102.644C58.5232 104.426 55.5519 105.23 52.3578 104.943C45.9319 104.368 39.8731 99.1923 39.6629 91.4063C39.0291 91.4063 38.3921 91.4063 37.7583 91.4063C35.6561 91.394 33.4127 89.6823 32.9483 87.4133C32.644 85.9232 32.9546 84.5901 33.8676 83.3894C34.103 83.0785 34.1124 82.863 33.8614 82.5613C33.146 81.7054 32.7946 80.6709 32.8228 79.5996C32.8761 77.6261 33.8049 76.1022 35.5965 75.1293C36.406 74.689 37.272 74.4982 38.1913 74.5197C38.527 74.529 38.8659 74.5197 39.2581 74.5197C39.2111 74.3689 39.1859 74.2765 39.1514 74.1841C38.3733 72.0167 36.8923 70.382 35.0976 68.9658C33.4974 67.7097 32.1263 66.2288 30.912 64.6094C30.6892 64.3139 30.4162 64.3231 30.1182 64.3231C25.7788 64.3262 21.4363 64.3323 17.0969 64.3385C16.5102 64.3385 15.9203 64.3262 15.3336 64.3477C14.5115 64.3816 13.8118 65.0527 13.8056 65.8594C13.7867 67.565 13.8056 69.2706 13.7961 70.9762C13.7961 71.1978 13.8997 71.2409 14.0974 71.284C17.0028 71.9151 19.5129 73.2205 21.3987 75.5295C23.617 78.248 24.6022 81.3575 23.9903 84.8025C23.2969 88.7063 21.1225 91.6588 17.5048 93.4998C15.2269 94.6574 12.789 95.1192 10.2506 94.6667C6.45406 93.9924 3.52036 92.0282 1.59385 88.7217C0.241526 86.4004 -0.301286 83.8851 0.163085 81.2405C0.837678 77.3983 2.92421 74.4982 6.40699 72.5801C7.53655 71.9583 8.7665 71.6258 10.009 71.324C10.3134 71.2502 10.3918 71.1362 10.3918 70.8345C10.3855 69.0643 10.3196 67.291 10.442 65.5269C10.5644 63.7566 11.5684 62.4543 13.1435 61.5861C13.9624 61.1336 14.8441 60.9643 15.776 60.9643C19.7232 60.9735 23.6734 60.9704 27.6206 60.9704C27.8622 60.9704 28.1007 60.9458 28.3454 60.9335C27.8591 59.9606 27.379 59.0555 26.946 58.1288C26.0455 56.2015 25.3646 54.1942 24.9285 52.1253C24.6179 50.6506 24.4579 49.1421 24.2508 47.6458C24.2163 47.3996 24.0907 47.3965 23.9088 47.3995C22.9675 47.4026 22.0262 47.3995 21.0849 47.3995C17.5958 47.3995 14.1036 47.3934 10.6146 47.3934C10.4577 47.3934 10.2945 47.3749 10.1471 47.4149C10.0435 47.4396 9.92115 47.5289 9.88036 47.6212C9.05203 49.5362 7.55537 50.586 5.47198 50.7584C2.29668 51.0201 -0.680941 47.9537 0.175635 44.561C0.853366 41.8795 3.52664 40.1893 6.16853 40.7588C7.88169 41.1283 9.19008 42.1134 9.87409 43.779C9.92115 43.8929 10.1031 44.0222 10.2286 44.0284C10.8028 44.0561 11.377 44.0407 11.9543 44.0407C15.9015 44.0407 19.8518 44.0315 23.7989 44.0407C24.1441 44.0407 24.2351 43.9637 24.2727 43.6004C24.6053 40.3586 25.3364 37.2091 26.7107 34.2289C27.2378 33.0898 27.8716 31.9969 28.4552 30.8824C28.5117 30.7716 28.5682 30.6638 28.6592 30.4945C28.4646 30.4852 28.3297 30.4729 28.1916 30.4729C24.257 30.4729 20.3224 30.4729 16.3878 30.4729C15.343 30.4729 14.3076 30.4637 13.338 29.9526C11.5057 28.9859 10.4608 27.5235 10.3981 25.4731C10.3479 23.8199 10.3824 22.1635 10.3981 20.5103C10.3981 20.2548 10.3447 20.1501 10.0906 20.0793C8.21114 19.5497 6.58898 18.62 5.3653 17.0899C2.32806 13.2784 3.10933 8.35254 6.51367 5.48629C8.53745 3.78377 10.9158 3.01718 13.542 3.54363C16.9244 4.21787 19.2807 6.19131 20.3068 9.48242C21.3673 12.8875 20.3224 15.7599 17.7621 18.1643C16.7581 19.1064 15.5313 19.6698 14.2072 20.0362C13.8652 20.1316 13.7773 20.3009 13.7836 20.6396C13.8056 22.1912 13.8338 23.746 13.7836 25.2946C13.7554 26.2243 14.5649 27.1356 15.6442 27.1295C20.677 27.0925 25.7098 27.1141 30.7426 27.1233C31.1002 27.1233 31.3136 26.9755 31.5615 26.7262C32.5341 25.7441 33.5162 24.762 34.5705 23.8691C37.6454 21.2615 41.1533 19.4112 45.0377 18.2413C47.1556 17.604 49.3237 17.2438 51.52 17.0314C51.7334 17.0098 51.7805 16.9267 51.7805 16.742C51.7805 14.5099 51.793 12.2779 51.7836 10.0458C51.7836 9.92268 51.6424 9.73795 51.52 9.69177C50.1583 9.14377 49.2327 8.17706 48.7056 6.85322C47.9306 4.91057 48.3573 3.15264 49.7692 1.66255C51.1153 0.2402 52.8316 -0.332437 54.7581 0.190941C56.7442 0.729711 58.0463 2.05047 58.5389 4.03622C59.1665 6.58538 57.4125 9.01446 55.508 9.65791C55.2883 9.7318 55.2036 9.84879 55.2068 10.0766C55.2193 12.2963 55.2256 14.5161 55.2193 16.7327C55.2193 16.9883 55.3354 17.016 55.5488 17.0314C60.0827 17.3916 64.3216 18.6846 68.2499 20.9382C70.9891 22.5084 73.4302 24.4479 75.4979 26.8154C75.683 27.0279 75.8713 27.1264 76.1631 27.1264C79.0121 27.1172 81.8642 27.1048 84.7132 27.1264C85.3564 27.1325 85.8396 26.9078 86.2757 26.4768C87.7598 25.0113 89.2533 23.5551 90.7406 22.0958C90.888 21.9511 91.0292 21.8003 91.2081 21.6155C91.1171 21.4554 91.0104 21.2707 90.9037 21.0829C89.8306 19.208 89.4479 17.2069 89.9781 15.1133C90.7312 12.1455 92.5824 10.0581 95.5129 8.99599C99.3189 7.61982 103.216 9.18071 105.277 11.9669C106.724 13.9219 107.323 16.1078 106.83 18.4722C106.037 22.2559 103.112 24.8174 99.3628 25.3315C97.4112 25.5994 95.6353 25.0914 93.9566 24.1678C93.6743 24.0108 93.5111 24.0354 93.2883 24.254C91.7634 25.7687 90.2229 27.268 88.6917 28.7766C87.5496 29.9003 86.2035 30.5129 84.5594 30.4852C82.5607 30.4514 80.5589 30.4637 78.5602 30.4545C78.51 30.4545 78.463 30.4668 78.3186 30.4883L78.3218 30.4791ZM53.5469 30.5222C53.7321 30.3005 53.9109 30.0635 54.1149 29.8479C56.4022 27.4158 60.2615 26.2859 63.6878 27.7729C66.5211 29.0044 68.2311 31.1194 68.8712 34.0504C69.1818 35.4789 69.1661 36.9351 68.5135 38.3113C68.4225 38.5021 68.4539 38.6284 68.6516 38.7577C68.9653 38.9639 69.2634 39.1979 69.5458 39.4442C72.4105 41.9595 73.5494 46.1835 71.2683 49.9549C70.6157 51.0324 69.7497 51.9098 68.7206 52.6364C68.4256 52.8427 68.3754 53.0182 68.5292 53.3291C68.6578 53.5908 68.7425 53.8802 68.8084 54.1665C69.414 56.7957 68.7457 59.1386 67.0012 61.1613C65.2409 63.2025 62.9442 64.2523 60.2113 64.3293C59.6622 64.3447 59.1665 64.4616 58.906 64.9419C58.7397 65.2498 58.6739 65.6439 58.6707 66.001C58.655 68.7318 58.6676 71.4657 58.6582 74.1965C58.6582 74.452 58.7303 74.5228 58.9908 74.5197C60.638 74.5105 62.2853 74.5136 63.9325 74.5197C64.1647 74.5197 64.2683 74.4674 64.3342 74.2242C64.877 72.1984 65.7712 70.3358 67.2302 68.7995C68.1715 67.8082 69.2477 66.9431 70.258 66.0164C75.7458 60.9766 78.7861 54.7792 79.329 47.4211C79.5611 44.2716 79.2097 41.1868 78.2433 38.1635C76.6274 33.1052 73.6843 28.9428 69.4422 25.6825C65.2692 22.4776 60.5188 20.6981 55.213 20.3687C51.6581 20.147 48.2004 20.578 44.8463 21.7448C41.7745 22.8131 39.0008 24.3987 36.5409 26.5014C33.0362 29.497 30.5261 33.1514 28.9886 37.4554C28.3548 39.2287 27.9124 41.0575 27.7367 42.9139C27.4982 45.4569 27.5735 47.9968 28.0599 50.5337C28.6623 53.6801 29.7605 56.6233 31.3575 59.3972C33.0801 62.3928 35.3361 64.945 38.0533 67.1093C40.3343 68.9288 41.8341 71.2625 42.6217 74.0271C42.7315 74.412 42.8601 74.532 43.2649 74.5228C44.8337 74.4951 46.4025 74.5043 47.9714 74.5166C48.2537 74.5166 48.351 74.4674 48.351 74.1626C48.3353 71.8289 48.3447 69.4922 48.3416 67.1586C48.3416 66.6075 48.351 66.0564 48.3259 65.5053C48.2977 64.9081 47.7423 64.3785 47.1367 64.3354C46.5908 64.2985 46.0323 64.3169 45.4958 64.2153C43.4657 63.8367 41.671 62.9839 40.2716 61.4692C38.229 59.2617 37.5293 56.691 38.2698 53.7755C38.3482 53.4676 38.5961 53.129 38.5176 52.8765C38.4392 52.6241 38.047 52.4701 37.7991 52.2639C35.3392 50.2258 34.1814 47.6397 34.6364 44.4933C34.9846 42.1011 36.2805 40.2016 38.2917 38.7977C38.5553 38.613 38.6149 38.4652 38.4957 38.1758C37.7803 36.4456 37.8619 34.7092 38.4392 32.9543C40.1618 27.7267 46.9673 24.9498 52.1162 29.1214C52.6245 29.5339 53.0543 30.0388 53.5438 30.5222H53.5469ZM63.5058 40.217C63.9953 39.4935 64.4534 38.8808 64.8425 38.2312C65.8528 36.541 65.9249 34.7985 64.9554 33.0744C63.7129 30.867 61.1463 29.9003 58.7774 30.71C56.625 31.4489 55.4044 32.9944 55.2287 35.2664C55.213 35.4758 55.1346 35.5589 54.9181 35.5589C53.9768 35.5528 53.0355 35.5497 52.0942 35.5589C51.8714 35.5589 51.7867 35.4758 51.7961 35.2664C51.8244 34.4691 51.5483 33.7517 51.1592 33.0775C49.9292 30.944 47.5446 29.9649 45.1224 30.6515C42.8099 31.3072 41.2944 33.5054 41.4011 35.8422C41.5109 38.2836 43.7355 40.5679 46.2331 40.6418C46.5123 40.6511 46.6222 40.728 46.6159 41.0205C46.5971 41.8795 46.5939 42.7384 46.6159 43.5974C46.6253 43.9329 46.4998 44.0068 46.186 43.9945C44.8902 43.9453 43.6822 43.5789 42.5746 42.9539C41.7902 42.5106 41.0811 41.938 40.3061 41.4023C40.0645 41.6116 39.7507 41.861 39.4652 42.1411C37.4351 44.1207 37.4477 47.3103 39.4746 49.2899C40.3186 50.115 41.3729 50.5337 42.4805 50.8662C42.8193 50.9678 43.1519 51.1001 43.519 51.2325C43.0829 51.8606 42.6907 52.4209 42.3079 52.9843C40.7391 55.2964 41.2191 58.2642 43.4657 59.8652C44.4603 60.5733 45.5648 60.9827 46.823 60.9612C48.3416 60.9365 49.5904 61.54 50.5787 62.6514C51.4008 63.575 51.7836 64.6618 51.7773 65.8994C51.7616 68.6579 51.7773 71.4164 51.7679 74.1718C51.7679 74.4489 51.8463 74.5166 52.1225 74.5136C53.0512 74.4951 53.9799 74.492 54.9055 74.5136C55.2193 74.5197 55.2632 74.415 55.2632 74.138C55.2507 71.4318 55.2381 68.7256 55.2695 66.0195C55.2758 65.376 55.3417 64.6895 55.5833 64.1045C56.4618 62.0018 58.1059 60.9427 60.4341 60.9458C62.9599 60.9489 65.7273 58.6891 65.6331 55.7151C65.5547 53.2214 63.3646 50.8662 60.7698 50.7861C60.4592 50.7769 60.4058 50.6599 60.409 50.392C60.4215 49.5454 60.4341 48.6988 60.4058 47.8521C60.3933 47.4673 60.5376 47.4057 60.8828 47.4303C62.825 47.575 64.5193 48.2893 66.0065 49.5085C66.2199 49.6839 66.4458 49.9918 66.6592 49.9856C66.8913 49.9764 67.1172 49.6809 67.3337 49.4961C69.3983 47.7351 69.6587 44.6072 67.9236 42.5291C67.0953 41.5346 65.9908 40.9928 64.7703 40.6264C64.3655 40.5064 63.9671 40.3617 63.509 40.2108L63.5058 40.217ZM43.1362 91.431C43.2806 95.4055 44.9906 98.4719 48.5204 100.335C52.3735 102.37 56.2202 102.089 59.7532 99.5464C62.5018 97.5699 63.8196 94.799 63.851 91.431H43.1331H43.1362ZM94.9262 101.591C99.7644 101.683 103.426 97.6684 103.58 93.4537C103.759 88.4693 99.4914 84.6517 95.0046 84.6332C90.135 84.6117 86.3385 88.5986 86.2632 92.9518C86.1816 97.7392 90.2354 101.714 94.9262 101.591ZM12.0861 91.431C16.9401 91.5295 20.6111 87.4872 20.7492 83.2632C20.9092 78.325 16.6765 74.4982 12.1803 74.4766C7.31064 74.452 3.51095 78.4358 3.43251 82.7891C3.34779 87.6041 7.42045 91.5541 12.0861 91.434V91.431ZM53.5093 77.8663V77.8755C52.7249 77.8755 51.9405 77.8755 51.1561 77.8755C46.779 77.8786 42.3989 77.8786 38.0219 77.8909C37.1465 77.8909 36.6037 78.288 36.3307 79.0608C36.0985 79.7227 36.337 80.4708 36.9331 80.9542C37.3881 81.3236 37.9309 81.2836 38.4643 81.2836C47.7705 81.2836 57.0768 81.2836 66.383 81.2836C67.2835 81.2836 68.1903 81.2436 69.0877 81.2928C70.0164 81.3421 71.0487 80.3015 70.7067 79.1162C70.4683 78.2819 69.8344 77.8663 68.799 77.8663C63.7004 77.8663 58.6048 77.8663 53.5062 77.8663H53.5093ZM53.5501 84.6394V84.6486C52.8567 84.6486 52.1632 84.6486 51.473 84.6486C46.9767 84.6517 42.4805 84.6548 37.9842 84.664C37.1559 84.664 36.6225 85.055 36.3432 85.7939C36.1016 86.4373 36.2962 87.1269 36.8453 87.6472C37.3096 88.0906 37.8901 88.0567 38.4643 88.0567C46.8544 88.0567 55.2475 88.0567 63.6376 88.0567C65.4543 88.0567 67.271 88.0228 69.0877 88.069C70.0164 88.0906 71.0487 87.0746 70.7099 85.8893C70.4714 85.055 69.8376 84.6394 68.8022 84.6394C63.7192 84.6394 58.6331 84.6394 53.5501 84.6394ZM12.0861 16.9298C14.8755 17.0837 17.2695 14.5438 17.3072 11.9392C17.348 9.13453 14.8724 6.76086 12.1489 6.73315C9.2246 6.70237 6.91215 9.20842 6.86823 11.7422C6.81489 14.7193 9.50071 17.1022 12.0861 16.9298ZM103.567 16.979C103.705 14.5161 101.578 11.8838 98.4623 11.8407C95.0831 11.7945 93.1785 14.6208 93.1534 16.8405C93.1252 19.4204 95.2525 22.0127 98.365 22.0188C101.54 22.0281 103.668 19.365 103.567 16.976V16.979ZM55.2413 5.08913C55.3511 4.15013 54.3659 3.31889 53.5062 3.35891C52.4676 3.40817 51.7553 4.07009 51.7585 5.07682C51.7585 6.06508 52.5084 6.77318 53.5344 6.76702C54.5102 6.76086 55.2475 6.03737 55.2413 5.08913ZM3.43878 45.7001C3.43565 46.6945 4.17299 47.4088 5.199 47.4057C6.16226 47.4057 6.86823 46.6945 6.93412 45.7832C7.00628 44.7642 6.03989 43.9637 5.20528 43.9976C4.16672 44.0376 3.44192 44.6995 3.43878 45.7001ZM100.078 45.6816C100.069 46.6791 100.8 47.4026 101.82 47.4088C102.786 47.4149 103.504 46.7068 103.574 45.8079C103.652 44.7673 102.679 43.9791 101.864 44.0007C100.819 44.0315 100.088 44.6872 100.078 45.6816Z" fill="#FFF4E1"/>
</svg>
