<svg width="545" height="570" viewBox="0 0 545 570" fill="none" xmlns="http://www.w3.org/2000/svg">
<circle cx="272.5" cy="272.5" r="271.5" stroke="#2EB196" stroke-width="2"/>
<circle cx="348.5" cy="532.5" r="37.5" fill="#2EB196"/>
<circle cx="348.5" cy="532.5" r="37.5" fill="#2EB196"/>
<g clip-path="url(#clip0_6_1162)">
<path d="M359.495 540.322C360.359 541.183 361.196 542.033 362.051 542.864C362.168 542.978 362.363 543.038 362.531 543.068C363.176 543.185 363.722 543.483 364.184 543.945C366.137 545.902 368.099 547.85 370.046 549.813C371.297 551.074 371.321 552.911 370.13 554.115C368.948 555.313 367.085 555.298 365.831 554.052C363.845 552.083 361.877 550.099 359.9 548.123C359.426 547.649 359.144 547.076 359.03 546.418C359.009 546.304 358.988 546.166 358.916 546.091C358.058 545.221 357.191 544.362 356.318 543.492C351.809 546.872 346.796 548.162 341.273 547.142C336.452 546.25 332.558 543.771 329.636 539.826C324.098 532.349 324.893 521.65 331.97 514.971C338.63 508.686 349.325 508.307 356.54 514.149C364.184 520.336 366.002 531.968 359.495 540.322ZM361.988 528.762C362 519.27 354.299 511.558 344.786 511.54C335.282 511.522 327.584 519.198 327.557 528.723C327.53 538.235 335.264 545.995 344.762 545.986C354.245 545.977 361.973 538.247 361.985 528.762M369.542 551.906C369.386 551.59 369.296 551.209 369.062 550.969C367.064 548.934 365.042 546.917 363.014 544.908C362.567 544.467 362.003 544.383 361.418 544.626C360.848 544.863 360.551 545.317 360.509 545.923C360.473 546.442 360.719 546.842 361.079 547.202C362.972 549.087 364.859 550.981 366.752 552.869C366.878 552.995 367.013 553.124 367.166 553.217C367.67 553.527 368.198 553.542 368.714 553.253C369.218 552.974 369.458 552.524 369.542 551.903M357.536 542.459C358.184 543.113 358.805 543.744 359.333 544.278C359.648 543.966 359.981 543.633 360.266 543.344C359.72 542.801 359.087 542.168 358.463 541.546C358.163 541.841 357.833 542.165 357.533 542.459" fill="white"/>
<path d="M329.042 528.749C329.045 520.092 336.086 513.041 344.747 513.02C353.408 513.002 360.479 520.077 360.479 528.761C360.479 537.454 353.423 544.497 344.738 544.476C336.065 544.452 329.039 537.412 329.042 528.749ZM344.798 542.987C352.685 542.921 359.087 536.479 358.991 528.695C358.895 520.77 352.535 514.476 344.687 514.533C336.8 514.593 330.491 520.984 330.551 528.854C330.611 536.686 337.025 543.053 344.795 542.987" fill="white"/>
<path d="M344.726 536.992C342.266 536.992 339.803 537.001 337.343 536.992C335.726 536.986 334.589 536.038 334.322 534.495C334.193 533.744 334.4 533.063 334.766 532.414C336.287 529.704 337.805 526.993 339.323 524.28C340.304 522.53 341.264 520.768 342.266 519.029C343.307 517.228 345.662 517.009 346.955 518.567C347.069 518.705 347.171 518.858 347.261 519.014C349.79 523.529 352.325 528.041 354.842 532.562C355.427 533.612 355.394 534.681 354.743 535.695C354.143 536.626 353.243 537.001 352.157 536.998C349.682 536.992 347.204 536.998 344.729 536.998M344.795 535.497C347.255 535.497 349.718 535.497 352.181 535.497C353.459 535.497 354.149 534.396 353.531 533.288C351.023 528.776 348.503 524.274 345.974 519.777C345.401 518.756 344.138 518.762 343.565 519.78C341.042 524.265 338.531 528.755 336.026 533.252C335.399 534.378 336.08 535.497 337.367 535.497C339.845 535.497 342.32 535.497 344.798 535.497" fill="white"/>
<path d="M332.06 527.99C332.279 524.787 333.518 522.01 335.816 519.717C335.912 519.621 336.005 519.516 336.119 519.447C336.437 519.252 336.761 519.261 337.034 519.519C337.325 519.792 337.355 520.125 337.148 520.464C337.079 520.578 336.974 520.671 336.878 520.768C334.73 522.92 333.614 525.513 333.542 528.557C333.542 528.677 333.542 528.803 333.509 528.917C333.407 529.275 333.167 529.497 332.789 529.494C332.393 529.494 332.123 529.272 332.063 528.881C332.021 528.602 332.054 528.311 332.054 527.99" fill="white"/>
<path d="M344.015 526.102C344.015 525.03 344.009 523.958 344.015 522.89C344.021 522.337 344.33 522.007 344.783 522.019C345.206 522.031 345.509 522.352 345.509 522.836C345.515 525.039 345.518 527.242 345.509 529.443C345.509 529.935 345.206 530.235 344.768 530.238C344.333 530.238 344.027 529.947 344.021 529.449C344.006 528.332 344.015 527.215 344.015 526.099V526.102Z" fill="white"/>
<path d="M344.774 533.234C344.354 533.237 344.024 532.91 344.027 532.492C344.03 532.09 344.339 531.775 344.741 531.763C345.161 531.751 345.503 532.069 345.512 532.483C345.521 532.898 345.191 533.234 344.774 533.237" fill="white"/>
</g>
<circle cx="400" cy="562" r="8" fill="#FF8A0B"/>
<defs>
<clipPath id="clip0_6_1162">
<rect width="45" height="45" fill="white" transform="translate(326 510)"/>
</clipPath>
</defs>
</svg>
