<svg width="30" height="30" viewBox="0 0 30 30" fill="none" xmlns="http://www.w3.org/2000/svg">
<g id="Layer_1" clip-path="url(#clip0_2_295)">
<path id="Vector" d="M14.9939 30C6.7297 29.9625 -0.0863073 23.3216 -0.000168983 14.8172C0.0842636 6.64945 6.69644 -0.012769 15.0425 1.83772e-05C23.2486 0.0128057 30.0791 6.64774 29.9981 15.159C29.9214 23.3378 23.3271 29.9497 14.993 30H14.9939ZM27.6639 14.8513C27.617 7.90517 21.8772 2.28555 14.9214 2.33158C7.89556 2.37761 2.28804 8.13107 2.32812 15.061C2.36906 22.0727 8.09512 27.7119 15.0945 27.6591C22.1527 27.6054 27.7713 21.8101 27.6639 14.8513Z" fill="#212121"/>
<path id="Vector_2" d="M12.9668 17.2987C13.2175 17.0361 13.4606 16.7719 13.7139 16.5187C15.6294 14.6014 17.5458 12.6859 19.463 10.7703C19.654 10.5794 19.8408 10.3842 20.0421 10.2043C20.7534 9.56748 21.6821 10.0142 21.9081 10.7038C22.0548 11.1506 21.9431 11.5342 21.6386 11.8624C21.3077 12.2187 20.9546 12.5546 20.6109 12.899C18.3807 15.1291 16.1496 17.3592 13.9194 19.5894C13.7327 19.7761 13.5408 19.9466 13.2806 20.0352C12.896 20.1665 12.5489 20.0881 12.2512 19.8468C11.9681 19.6175 11.7174 19.3473 11.4589 19.0898C10.4748 18.1094 9.49312 17.1274 8.51148 16.1453C8.32983 15.9637 8.17034 15.7719 8.08506 15.5187C7.96225 15.1547 8.03986 14.8248 8.24454 14.5281C8.65306 13.9348 9.44877 13.841 9.97328 14.3355C10.5643 14.8938 11.1323 15.4769 11.7088 16.0507C12.0943 16.4343 12.4773 16.8196 12.861 17.2041C12.8858 17.2288 12.9131 17.251 12.9668 17.2996V17.2987Z" fill="#212121"/>
</g>
<defs>
<clipPath id="clip0_2_295">
<rect width="30" height="30" fill="white"/>
</clipPath>
</defs>
</svg>
