<svg width="72" height="72" viewBox="0 0 72 72" fill="none" xmlns="http://www.w3.org/2000/svg">
<g id="Group 90">
<path id="Vector" d="M61.3796 25.3036H59.2437C59.2375 25.1906 59.2273 25.0838 59.2293 24.977C59.2519 22.7152 58.8631 20.5109 58.1921 18.3662C57.0443 14.6951 55.0884 11.5027 52.3632 8.7889C50.213 6.64829 47.7395 4.99456 44.9529 3.81743C43.0216 3.00186 41.0125 2.44925 38.9236 2.25409C37.737 2.14316 36.5442 2.03428 35.3555 2.06098C33.7577 2.09591 32.168 2.28696 30.6049 2.67317C24.6656 4.13791 20.0357 7.47207 16.619 12.5237C14.7818 15.2395 13.6442 18.247 13.0836 21.4867C12.7011 23.7012 12.6786 25.9199 12.9159 28.1345C13.0509 29.402 13.3598 30.6592 13.6872 31.8939C14.2723 34.1146 15.24 36.1792 16.5106 38.0897C17.3903 39.4127 18.3417 40.6864 19.2091 42.0176C20.2976 43.6878 21.1793 45.4709 21.9261 47.3219C22.0468 47.6197 22.1716 47.9176 22.3169 48.2258C22.5563 44.2404 24.06 40.8466 27.0777 38.2192C30.0873 35.5978 33.6226 34.4556 37.5835 34.9076C40.9143 35.2876 43.7622 36.7585 46.0516 39.2381C48.3307 41.7074 49.503 44.6615 49.7424 48.0573C49.8713 47.7656 49.9859 47.5232 50.0861 47.2767C51.2278 44.4438 52.7622 41.843 54.5994 39.4148C55.8004 37.8288 56.762 36.1053 57.523 34.2605C58.2719 32.4486 58.7547 30.5709 59.0268 28.6357C59.08 28.2557 59.1086 27.8715 59.1311 27.4894C59.1393 27.3477 59.1966 27.3066 59.3173 27.3148C59.9516 27.3662 60.5858 27.4216 61.2569 27.4771C61.2077 27.888 61.1586 28.2577 61.1218 28.6296C60.952 30.384 60.5101 32.0788 59.9352 33.7346C59.0411 36.3127 57.7522 38.6834 56.0991 40.8528C54.2168 43.32 52.7376 46.0133 51.6513 48.9222C51.0518 50.5246 50.5669 52.166 50.2744 53.8485C49.9327 55.8186 49.6892 57.803 49.7138 59.8163C49.7445 62.3143 49.722 64.8144 49.722 67.3146V67.6186C49.6278 67.6227 49.546 67.6309 49.4642 67.6309C48.877 67.6309 48.2878 67.6309 47.7006 67.6309C47.5799 67.6309 47.5062 67.6412 47.4714 67.7953C47.1727 69.1265 46.4628 70.1927 45.3621 70.9918C44.3842 71.7026 43.2896 72.0169 42.0764 71.9738C41.1925 71.9429 40.3046 71.982 39.4187 72.0005C39.2264 72.0046 39.1507 71.9635 39.1568 71.7457C39.1752 71.1397 39.163 70.5337 39.163 69.8927C39.2632 69.8927 39.3553 69.8927 39.4453 69.8927C40.4253 69.8927 41.4053 69.8927 42.3853 69.8927C43.5965 69.8927 44.7954 69.0936 45.2639 67.9699C45.3028 67.8795 45.3171 67.7788 45.3498 67.6535H26.6563C26.7422 67.8569 26.7954 68.0438 26.8936 68.2041C27.5483 69.2826 28.4812 69.8948 29.7681 69.8907C30.6806 69.8886 31.5931 69.8907 32.5035 69.8907C32.5956 69.8907 32.6897 69.8907 32.792 69.8907C32.8063 69.9687 32.8247 70.0263 32.8268 70.0817C32.8309 70.6467 32.8309 71.2116 32.8349 71.7766C32.8349 71.9224 32.7961 71.9964 32.6304 71.9922C31.5399 71.9758 30.4453 72.0107 29.3589 71.9471C27.4092 71.832 26.0139 70.7987 25.0748 69.1265C24.8395 68.7094 24.7331 68.2205 24.5469 67.7747C24.5183 67.7049 24.3873 67.6391 24.3035 67.6371C23.7327 67.6248 23.1618 67.6309 22.591 67.6309C22.5071 67.6309 22.4233 67.6309 22.3066 67.6309C22.3066 67.5138 22.3066 67.4152 22.3066 67.3146C22.3066 64.6953 22.2985 62.076 22.3087 59.4568C22.3148 57.9468 22.1409 56.4554 21.92 54.964C21.4474 51.7818 20.4387 48.7804 19.0373 45.9003C18.0491 43.8706 16.7929 42.0135 15.4651 40.1995C14.1271 38.3712 13.0714 36.3846 12.2857 34.2543C11.7681 32.8491 11.3037 31.4255 11.0889 29.9423C10.8372 28.2187 10.5467 26.489 10.6531 24.7346C10.7063 23.8656 10.8331 23.0007 10.9088 22.1317C11.0623 20.365 11.5267 18.664 12.1037 17.0021C12.9016 14.6992 14.0125 12.5442 15.4569 10.5762C17.5458 7.72887 20.0254 5.30065 23.0759 3.49079C24.5981 2.58895 26.2 1.86993 27.8797 1.30705C29.3548 0.811955 30.8586 0.458611 32.3869 0.214146C33.9316 -0.0262098 35.5028 -0.00977522 37.0741 0.010768C38.6924 0.0333656 40.2841 0.259341 41.8513 0.633228C43.7499 1.08723 45.5872 1.73024 47.3446 2.59511C50.6324 4.21186 53.3535 6.52503 55.6654 9.35178C57.2673 11.3096 58.5399 13.4666 59.483 15.8106C60.2912 17.8197 60.8865 19.8966 61.1218 22.0619C61.2303 23.0644 61.2957 24.071 61.3796 25.0756C61.3857 25.1434 61.3796 25.2091 61.3796 25.3016V25.3036ZM40.2494 37.72V59.1815H47.6106C47.6106 59.0952 47.6106 59.0356 47.6106 58.976C47.6065 55.5453 47.6106 52.1126 47.5942 48.6818C47.5901 47.9402 47.5778 47.1842 47.4408 46.459C46.8802 43.5316 45.4276 41.1342 43.0707 39.3018C42.2175 38.6403 41.2866 38.1164 40.2514 37.7179L40.2494 37.72ZM31.7731 37.7569C31.0304 38.0014 30.386 38.3609 29.764 38.7635C27.5258 40.2139 25.9586 42.2025 25.0461 44.7108C24.5531 46.0626 24.4099 47.4636 24.4139 48.8955C24.4262 52.2071 24.418 55.5166 24.418 58.8281C24.418 58.9452 24.418 59.0623 24.418 59.1856H31.7731V37.7549V37.7569ZM47.5737 65.5417C47.5942 65.48 47.6024 65.4636 47.6024 65.4492C47.6024 64.1221 47.6024 62.7971 47.6065 61.47C47.6065 61.3139 47.541 61.2913 47.4039 61.2913C46.0414 61.2933 44.6767 61.2892 43.3141 61.2892C37.0761 61.2872 30.8361 61.2851 24.5981 61.2789C24.461 61.2789 24.3976 61.3057 24.3996 61.4597C24.4078 62.7601 24.4119 64.0605 24.4119 65.3609C24.4119 65.4944 24.4549 65.5417 24.5899 65.5376C24.819 65.5293 25.0502 65.5376 25.2794 65.5376C32.5322 65.5376 39.7849 65.5376 47.0377 65.5376C47.2157 65.5376 47.3917 65.5376 47.5717 65.5376L47.5737 65.5417ZM38.0889 59.202V41.013C37.3626 41.4979 36.6813 41.9539 36.0082 42.4018C35.3105 41.9354 34.6272 41.4794 33.905 40.9966V59.202H38.0889ZM38.1093 37.837C38.1093 37.8124 38.1093 37.7857 38.1093 37.761C38.1011 37.1283 38.1011 37.1304 37.4771 37.0441C36.3642 36.89 35.2532 36.9393 34.1443 37.0913C33.95 37.118 33.8722 37.1838 33.8865 37.3954C33.905 37.683 33.8906 37.9767 33.8681 38.2664C33.8559 38.4349 33.9152 38.5335 34.0523 38.6218C34.6435 39.008 35.2328 39.3983 35.8138 39.801C35.957 39.8996 36.0573 39.9016 36.1984 39.803C36.6444 39.4887 37.0864 39.1662 37.5549 38.8909C37.9722 38.6444 38.2607 38.3691 38.1073 37.837H38.1093Z" fill="white"/>
<path id="Vector_2" d="M44.4721 18.2221C44.4721 20.1573 44.4844 22.0904 44.4701 24.0255C44.4435 27.1995 43.1116 29.6832 40.456 31.4067C38.9563 32.3805 37.2889 32.8324 35.4967 32.666C32.1189 32.3497 29.7211 30.6138 28.2889 27.5384C27.8204 26.5339 27.624 25.4595 27.624 24.3501C27.624 21.8767 27.624 19.4033 27.624 16.9299C27.624 15.5186 28.3032 14.5572 29.5512 13.9614C29.6822 13.8998 29.8295 13.7786 29.8765 13.6492C30.3287 12.4001 31.4744 11.5496 32.8165 11.5085C33.371 11.4921 33.9254 11.5044 34.4778 11.5044C37.692 11.5044 40.9061 11.5044 44.1182 11.5044C44.3446 11.5044 44.4585 11.6222 44.4599 11.8578C44.4599 13.9799 44.4599 16.1041 44.4599 18.2262C44.4639 18.2262 44.4701 18.2262 44.4742 18.2262L44.4721 18.2221ZM31.7752 18.9411C31.7752 19.3992 31.7793 19.8162 31.7752 20.2333C31.7731 20.4798 31.8468 20.829 31.7199 20.9441C31.5726 21.0755 31.2412 21.0098 30.9895 21.0139C30.5578 21.0221 30.1262 21.0139 29.6699 21.0139C29.6699 21.1248 29.6699 21.2173 29.6699 21.3097C29.6699 22.2177 29.6515 23.1237 29.674 24.0297C29.7026 25.1123 29.8622 26.1744 30.3778 27.1502C31.2043 28.7135 32.4565 29.7961 34.1321 30.3138C35.7442 30.811 37.3564 30.7144 38.8745 29.9297C40.9552 28.8512 42.15 27.1235 42.3382 24.7774C42.4344 23.5798 42.3648 22.3677 42.3669 21.1598C42.3669 21.1125 42.3444 21.0653 42.3321 21.016C42.1152 21.016 41.9127 21.016 41.7081 21.016C39.1937 21.016 36.6813 21.0139 34.1668 21.0201C33.9766 21.0201 33.9111 20.9687 33.9193 20.7756C33.9336 20.375 33.9275 19.9724 33.9295 19.5697C33.9295 19.3663 33.9295 19.165 33.9295 18.939H42.3485V13.606C42.2666 13.606 42.2175 13.606 42.1664 13.606C39.1323 13.606 36.0982 13.606 33.0661 13.606C32.972 13.606 32.8779 13.606 32.7858 13.6142C32.1721 13.6553 31.7793 14.06 31.7649 14.6763C31.7588 14.968 31.7547 15.2577 31.7649 15.5494C31.7731 15.7425 31.724 15.8308 31.5092 15.8165C31.2289 15.8 30.9466 15.8103 30.6663 15.8247C30.1221 15.8534 29.7211 16.1801 29.6883 16.7204C29.6454 17.4517 29.6781 18.1872 29.6781 18.9431H31.7752V18.9411Z" fill="white"/>
<path id="Vector_3" d="M71.9979 26.3243H65.5288C65.5288 25.6607 65.5247 25.0136 65.5369 24.3665C65.5369 24.3151 65.6351 24.233 65.6965 24.2248C65.8561 24.2042 66.0198 24.2145 66.1814 24.2145C68.0309 24.2206 69.8784 24.2268 71.7279 24.235C71.8118 24.235 71.8957 24.2432 72 24.2474V26.3243H71.9979Z" fill="white"/>
<path id="Vector_4" d="M0.00204592 26.3246C0.00204592 25.6693 0.00613776 25.0386 0 24.4059C0 24.219 0.114571 24.2292 0.237327 24.2292C0.926801 24.2231 1.61628 24.2148 2.3078 24.2148C3.58445 24.2148 4.86315 24.2148 6.1398 24.219C6.47533 24.219 6.47738 24.2251 6.47942 24.562C6.47942 25.0756 6.47738 25.5892 6.47533 26.1007C6.47533 26.261 6.42828 26.3452 6.23801 26.3452C4.20232 26.339 2.16663 26.3411 0.130939 26.3411C0.0982041 26.3411 0.0654694 26.3349 0.00204592 26.3287V26.3246Z" fill="white"/>
<path id="Vector_5" d="M65.3037 29.379C65.9195 29.4838 66.5129 29.5824 67.1062 29.6851C68.5547 29.9378 70.0011 30.1987 71.4517 30.4349C71.6665 30.4699 71.6808 30.5582 71.6502 30.7205C71.5438 31.2731 71.4312 31.8257 71.3371 32.3804C71.3064 32.5529 71.2328 32.5879 71.0773 32.555C70.5372 32.44 69.9971 32.3208 69.4528 32.2263C68.0718 31.9839 66.6888 31.7538 65.3058 31.5196C64.9743 31.4641 64.9682 31.4621 65.0173 31.1355C65.1032 30.5726 65.1994 30.0097 65.3037 29.377V29.379Z" fill="white"/>
<path id="Vector_6" d="M6.73725 21.1689C6.35671 21.0888 6.01095 21.0066 5.6611 20.945C3.98549 20.6533 2.30783 20.3657 0.630182 20.0884C0.398993 20.0493 0.382626 19.9507 0.421498 19.7597C0.52584 19.242 0.62609 18.7202 0.705881 18.1984C0.732478 18.0258 0.783626 17.9888 0.949345 18.0176C2.82545 18.3525 4.70156 18.6811 6.57767 19.0119C7.07073 19.0982 7.07892 19.1043 7.00526 19.5933C6.92752 20.1068 6.83136 20.6184 6.73725 21.171V21.1689Z" fill="white"/>
<path id="Vector_7" d="M7.10137 31.4775C6.62263 31.5597 6.17866 31.6316 5.73674 31.7097C4.98385 31.8432 4.23095 31.9829 3.47805 32.1185C2.68423 32.2602 1.88837 32.4081 1.09251 32.5417C0.716061 32.6054 0.734474 32.5786 0.695602 32.2561C0.634224 31.7487 0.517607 31.2474 0.423494 30.7462C0.396897 30.6003 0.386668 30.4873 0.589214 30.4524C1.42804 30.3148 2.26277 30.1607 3.09956 30.0169C4.24732 29.8197 5.39508 29.6225 6.54284 29.4294C6.60012 29.4191 6.65945 29.4294 6.74947 29.4294C6.862 30.095 6.97657 30.7647 7.09728 31.4796L7.10137 31.4775Z" fill="white"/>
<path id="Vector_8" d="M71.6501 19.9299C71.5887 19.9627 71.5028 20.0346 71.4066 20.0531C70.7049 20.1846 69.999 20.3017 69.2973 20.4291C68.0329 20.6571 66.7706 20.8851 65.5083 21.1234C65.3528 21.1522 65.2914 21.1358 65.2668 20.9735C65.1809 20.3982 65.0909 19.8251 64.9927 19.254C64.9722 19.1328 64.9722 19.067 65.1175 19.0403C66.4882 18.7918 67.859 18.535 69.2318 18.2864C69.8599 18.1734 70.4901 18.0748 71.1202 17.9803C71.1795 17.9721 71.3002 18.0276 71.3084 18.0707C71.4271 18.6644 71.5294 19.2622 71.6481 19.9299H71.6501Z" fill="white"/>
<path id="Vector_9" d="M23.3664 9.3765C23.3664 9.08684 23.3562 8.79513 23.3746 8.50547C23.3787 8.43767 23.4789 8.32263 23.5362 8.32058C24.1316 8.3062 24.727 8.30825 25.3223 8.32058C25.3755 8.32058 25.4717 8.42946 25.4717 8.48903C25.4839 9.07862 25.4778 9.66821 25.4819 10.2578C25.4819 10.3996 25.4308 10.4489 25.2834 10.4468C24.7126 10.4406 24.1439 10.4427 23.5731 10.4509C23.4217 10.453 23.3603 10.4119 23.3685 10.2475C23.3828 9.95787 23.3726 9.66616 23.3726 9.3765C23.3705 9.3765 23.3685 9.3765 23.3664 9.3765Z" fill="white"/>
<path id="Vector_10" d="M37.0741 69.9014C37.0741 70.5649 37.0781 71.2038 37.0659 71.8427C37.0659 71.8879 36.9574 71.9701 36.8981 71.9721C36.3027 71.9844 35.7074 71.9886 35.112 71.9824C35.0547 71.9824 34.9483 71.8961 34.9483 71.8509C34.9483 71.2202 34.9586 70.5896 34.9688 69.9568C34.9688 69.9425 34.9852 69.9281 34.9995 69.9014H37.0741Z" fill="white"/>
<path id="Vector_11" d="M27.6218 10.4321V8.32227H29.6473V10.4321H27.6218Z" fill="white"/>
<path id="Vector_12" d="M29.6555 44.4297V46.5539H27.628V44.4297H29.6555Z" fill="white"/>
</g>
</svg>
