<svg width="73" height="46" viewBox="0 0 73 46" fill="none" xmlns="http://www.w3.org/2000/svg">
<g id="Layer_1" clip-path="url(#clip0_13_137)">
<path id="Vector" d="M4.66591 32.1549C4.08858 32.1549 3.51789 32.1549 2.9472 32.1549C2.41189 32.1549 1.87881 32.1593 1.34351 32.1549C0.445438 32.1437 0.00525263 31.6931 0.00525263 30.7875C0.00525263 27.8877 0.00525263 24.9879 0.00525263 22.088C0.00525263 21.9141 0.0229485 21.7334 0.0738242 21.5661C0.195484 21.1512 0.443226 20.8367 0.8812 20.7318C1.3236 20.627 1.69521 20.7541 1.99825 21.1021C2.22609 21.3631 2.23715 21.6731 2.23494 21.9921C2.23494 23.703 2.23272 25.4117 2.23051 27.1226C2.23051 27.9301 2.23051 28.7398 2.23051 29.5473C2.23051 29.6655 2.24378 29.7837 2.25042 29.9109H4.57964C4.58628 29.8172 4.59955 29.7369 4.59955 29.6566C4.59291 23.132 4.58628 16.6074 4.57964 10.0828C4.57964 7.99271 4.57964 5.90038 4.57964 3.81029C4.57964 3.66083 4.58407 3.51138 4.57301 3.36416C4.53098 2.75074 4.06646 2.289 3.4648 2.25331C2.92729 2.22208 2.37872 2.65482 2.26812 3.21025C2.23494 3.382 2.22166 3.56046 2.22166 3.73667C2.22166 8.18009 2.22609 12.6213 2.23051 17.0647C2.23051 18.0751 1.49613 18.6105 0.629033 18.2201C0.160092 18.0105 0.0649763 17.571 0.000828653 17.1182C-0.0080193 17.0535 -0.00138333 16.9888 -0.00138333 16.9241C-0.00138333 12.5008 -0.0102313 8.07525 0.00304064 3.65191C0.0118886 2.35592 0.489678 1.27629 1.60231 0.551338C3.04674 -0.389986 4.93577 -0.0866209 6.03734 1.25176C6.63237 1.97448 6.85578 2.82435 6.85799 3.73667C6.86684 8.13324 6.86241 12.5298 6.86241 16.9241V17.2699C7.54592 16.7546 8.2626 16.42 9.0744 16.2349C9.0744 16.0877 9.0744 15.9315 9.0744 15.7754C9.08988 14.5574 9.05007 13.3373 9.13191 12.1261C9.36196 8.73105 10.6405 5.8067 13.1113 3.44223C14.3876 2.22208 15.8608 1.32537 17.5043 0.718636C18.9354 0.192208 20.4219 0.000373521 21.9504 0.000373521C31.0638 0.0137573 40.1794 0.00483478 49.2928 0.00929603C50.443 0.00929603 51.5999 -0.00854899 52.7457 0.0918292C54.8426 0.276971 56.7472 1.05323 58.4637 2.26669C60.9278 4.01104 62.5824 6.35989 63.4008 9.27755C63.726 10.4375 63.9096 11.6376 63.914 12.851C63.9184 13.9016 63.9029 14.95 63.8941 16.0007C63.8941 16.1256 63.8808 16.2282 64.0534 16.2639C64.7833 16.42 65.4425 16.7412 66.0353 17.1985C66.0552 17.2141 66.084 17.2141 66.1393 17.232C66.1393 17.0691 66.1393 16.9264 66.1393 16.7814C66.1393 12.4049 66.1282 8.02617 66.1459 3.64968C66.1525 2.34922 66.648 1.2696 67.7673 0.533494C69.6585 -0.708966 72.3704 0.301508 72.877 2.70612C72.95 3.05856 72.9898 3.42439 72.9898 3.78352C72.9964 8.16001 72.9964 12.5387 72.992 16.9152C72.992 17.0981 72.9743 17.2877 72.9323 17.4662C72.7885 18.0729 72.3549 18.3718 71.7245 18.3205C71.1759 18.2737 70.8132 17.9079 70.7756 17.31C70.7446 16.8282 70.7535 16.3442 70.7535 15.8624C70.7535 11.8383 70.7623 7.81426 70.7557 3.79021C70.7557 3.50915 70.7203 3.21025 70.6229 2.94926C70.4504 2.48529 69.9085 2.19754 69.4395 2.26C68.9153 2.32915 68.4751 2.75743 68.4065 3.2727C68.3888 3.40208 68.3888 3.53146 68.3888 3.66306C68.3955 10.8747 68.4021 18.0863 68.4065 25.2979C68.4065 26.7746 68.3999 28.2535 68.3977 29.7302C68.3977 29.777 68.4043 29.8216 68.411 29.893H70.7645C70.7645 29.7592 70.7645 29.6142 70.7645 29.4714C70.7579 26.9798 70.7513 24.4904 70.7446 21.9988C70.7446 21.6352 70.8021 21.3006 71.0742 21.0285C71.6228 20.4775 72.5098 20.6181 72.8239 21.3319C72.9256 21.5616 72.9831 21.8315 72.9831 22.0836C72.9942 24.9923 72.992 27.9011 72.9898 30.8098C72.9898 31.6797 72.543 32.1415 71.6803 32.1482C70.6672 32.1571 69.6519 32.1593 68.6388 32.1437C68.3977 32.1415 68.2959 32.2017 68.2229 32.4493C67.6943 34.303 66.5507 35.6213 64.7745 36.3596C64.5643 36.4466 64.3387 36.5113 64.1131 36.5537C63.8786 36.5983 63.7835 36.7165 63.7481 36.9529C63.6242 37.8184 63.4274 38.6638 63.0911 39.4758C62.1333 41.7934 60.5628 43.5511 58.3752 44.7445C56.7604 45.6256 55.024 45.9825 53.1947 45.9825C41.9401 45.9736 30.6855 46.0294 19.4331 45.9535C15.0667 45.9245 11.9212 43.7251 10.0123 39.7591C9.58316 38.8668 9.37523 37.9032 9.21154 36.9306C9.18942 36.7968 9.20491 36.6518 8.99477 36.5983C6.67439 36.0027 5.30296 34.4569 4.65264 32.1482L4.66591 32.1549ZM28.5377 2.29569C28.4846 2.28231 28.458 2.26892 28.4337 2.26892C25.8545 2.28677 23.2731 2.26446 20.6962 2.34253C19.1965 2.38715 17.7852 2.88234 16.4956 3.66306C13.8412 5.27135 12.1867 7.61797 11.5762 10.6739C11.4125 11.4926 11.4169 12.3536 11.4147 13.1945C11.4036 20.6002 11.408 28.0081 11.4058 35.4138C11.4058 36.2793 11.4656 37.1314 11.731 37.9679C12.4278 40.1695 13.7881 41.7934 15.821 42.8485C17.1061 43.5155 18.4864 43.714 19.9131 43.714C30.9709 43.7095 42.0308 43.7118 53.0885 43.714C54.7785 43.714 56.3932 43.4285 57.831 42.4804C60.2642 40.8744 61.5781 38.617 61.5848 35.6614C61.6003 27.9947 61.5848 20.3281 61.5936 12.6614C61.5936 11.5059 61.4454 10.3839 61.0694 9.29763C59.6515 5.17989 55.9951 2.33361 51.3919 2.26892C49.1799 2.23769 46.968 2.26446 44.756 2.26446C44.6675 2.26446 44.5768 2.27338 44.4618 2.27784C44.4618 2.41391 44.4618 2.53214 44.4618 2.65036C44.464 5.95838 44.4618 9.2664 44.4728 12.5744C44.4728 12.9402 44.3357 13.2168 44.0813 13.4578C43.8004 13.7254 43.462 13.799 43.0903 13.799C41.073 13.7968 39.0535 13.799 37.0361 13.799C34.6671 13.799 32.3003 13.7857 29.9312 13.8035C29.0686 13.8102 28.5023 13.2369 28.5156 12.3759C28.5554 9.75491 28.5333 7.13392 28.5333 4.51516C28.5333 3.78129 28.5333 3.04741 28.5333 2.29569H28.5377ZM42.2033 2.28454H30.7895C30.7895 2.44068 30.7895 2.57675 30.7895 2.71505C30.7961 5.43864 30.8028 8.16001 30.8094 10.8836C30.8094 11.4703 30.8094 11.4703 31.3779 11.4703C34.833 11.4703 38.2903 11.4703 41.7455 11.468C42.1989 11.468 42.1945 11.4591 42.1945 10.9974C42.1945 8.42322 42.2011 5.84908 42.2033 3.27493C42.2033 2.95149 42.2033 2.62805 42.2033 2.28454ZM63.9228 34.2517C63.9649 34.2517 63.9958 34.2606 64.018 34.2517C65.3562 33.7029 66.1393 32.5252 66.1415 31.0619C66.1415 27.968 66.1415 24.8763 66.1415 21.7825C66.1415 20.8746 65.8406 20.0916 65.2257 19.4336C64.8696 19.0544 64.4493 18.7689 63.9228 18.586V34.2494V34.2517ZM9.07219 18.6328C9.0191 18.6328 8.99919 18.6283 8.98371 18.6328C8.92399 18.6551 8.86205 18.6752 8.80454 18.7042C7.5614 19.3265 6.87569 20.3303 6.86684 21.7356C6.84693 24.8206 6.8602 27.9078 6.86241 30.9927C6.86241 31.2425 6.87126 31.4968 6.91993 31.74C7.16103 32.978 7.9109 33.7877 9.06998 34.2918V18.6328H9.07219Z" fill="white"/>
<path id="Vector_2" d="M36.4447 41.3673C30.9059 41.3673 25.3671 41.3584 19.8305 41.374C18.6515 41.3762 17.53 41.1933 16.5258 40.5598C14.9199 39.5449 13.9333 38.1151 13.7718 36.17C13.7409 35.8086 13.7232 35.4472 13.721 35.0859C13.7165 30.6625 13.7143 26.2392 13.721 21.8159C13.7254 19.0053 15.7162 16.8683 17.9503 16.3107C18.5519 16.1612 19.189 16.1032 19.8106 16.1032C30.9877 16.0921 42.1671 16.0921 53.3465 16.0965C55.6315 16.0965 57.3944 17.0557 58.5668 19.0566C59.0291 19.8485 59.2591 20.7095 59.2813 21.6285C59.2857 21.7958 59.2901 21.9631 59.2901 22.1304C59.2901 26.5269 59.2923 30.9213 59.2879 35.3179C59.2879 35.7439 59.2768 36.1766 59.2083 36.596C58.7791 39.2549 56.4543 41.3026 53.7845 41.3495C51.8777 41.3829 49.9688 41.3673 48.0621 41.3673C44.1911 41.3673 40.3201 41.3673 36.4513 41.3673H36.4447ZM36.4735 39.0698C42.1959 39.0698 47.9183 39.0586 53.6407 39.0765C55.4789 39.0832 57.0449 37.6556 57.0604 35.6234C57.0958 31.0239 57.0781 26.4243 57.0648 21.8248C57.0626 21.0686 56.826 20.3615 56.3681 19.7481C55.5762 18.6908 54.4768 18.3428 53.2138 18.345C43.1426 18.3495 33.0692 18.345 22.998 18.3495C21.746 18.3495 20.4918 18.3383 19.2399 18.3829C17.3553 18.4498 15.9551 19.9154 15.9418 21.8806C15.9108 26.4623 15.9285 31.044 15.9352 35.6234C15.9352 36.3149 16.1342 36.9685 16.5169 37.5396C17.1916 38.55 18.1383 39.0698 19.3615 39.0698C25.0662 39.0675 30.771 39.0698 36.4735 39.0698Z" fill="white"/>
<path id="Vector_3" d="M50.2165 27.6332C50.0573 29.5494 48.6482 31.0238 46.7371 31.0216C45.0825 31.0216 43.3727 29.7412 43.3771 27.5596C43.3793 25.416 45.1334 24.1066 46.8079 24.1423C48.6527 24.1802 50.0949 25.6145 50.2165 27.6332ZM46.7526 26.4555C46.1111 26.4555 45.5957 26.9529 45.5846 27.5819C45.5736 28.1775 46.1222 28.7039 46.7548 28.7106C47.4317 28.7173 47.9161 28.24 47.9139 27.5686C47.9117 26.9239 47.4228 26.4555 46.7526 26.4555Z" fill="white"/>
<path id="Vector_4" d="M29.6451 27.5882C29.6384 29.4619 28.048 31.0836 26.1877 31.0256C24.3938 30.9676 22.8343 29.6359 22.8321 27.5748C22.8277 25.5093 24.4845 24.1508 26.2585 24.133C28.0768 24.1151 29.6517 25.7457 29.6451 27.5882ZM26.2187 28.7102C26.8557 28.7124 27.422 28.1771 27.4242 27.5726C27.4264 26.9614 26.8978 26.455 26.2541 26.4528C25.544 26.4528 25.0839 26.9034 25.0817 27.606C25.0817 28.2373 25.5639 28.708 26.2187 28.7102Z" fill="white"/>
<path id="Vector_5" d="M36.4403 33.3498C34.4694 33.1802 32.9498 32.2679 32.0738 30.392C31.804 29.8142 32.0052 29.2566 32.556 28.9421C33.0648 28.6521 33.662 28.806 34.0071 29.319C34.1044 29.464 34.1796 29.6269 34.2703 29.7763C34.7835 30.6039 35.5135 31.0344 36.4934 31.0344C37.4932 31.0344 38.2386 30.5949 38.7562 29.7451C38.8514 29.5867 38.9288 29.4149 39.0372 29.2677C39.3844 28.7926 39.964 28.6699 40.4573 28.9532C40.9903 29.2588 41.1872 29.8276 40.9395 30.383C40.5944 31.1481 40.0989 31.7973 39.4309 32.3058C38.5594 32.9706 37.5618 33.2784 36.4403 33.3475V33.3498Z" fill="white"/>
</g>
<defs>
<clipPath id="clip0_13_137">
<rect width="73" height="46" fill="white"/>
</clipPath>
</defs>
</svg>
