<svg width="74" height="75" viewBox="0 0 74 75" fill="none" xmlns="http://www.w3.org/2000/svg">
<g id="Isolation_Mode" clip-path="url(#clip0_3_1098)">
<path id="Vector" d="M0 54.3504C0.300933 53.9455 0.557467 53.4956 0.907733 53.1357C2.68373 51.3062 4.47453 49.5017 6.26533 47.6921C7.33093 46.6174 8.08573 46.6174 9.15627 47.7021C13.6061 52.2059 18.0511 56.7147 22.496 61.2185C22.6835 61.4085 22.8413 61.6284 23.1867 62.0483C23.7293 61.4085 24.2029 60.8686 24.6519 60.3088C25.2537 59.564 26.0283 59.349 26.9508 59.354C33.4776 59.374 40.0093 59.374 46.5411 59.344C46.9752 59.344 47.4883 59.1541 47.8237 58.8792C52.9692 54.6503 58.09 50.3964 63.2157 46.1426C63.3983 45.9876 63.5907 45.8226 63.7189 45.6227C65.9439 42.0287 68.1589 38.4296 70.4036 34.7906C69.6241 34.2057 68.7608 34.2957 67.9813 34.5307C67.2413 34.7556 66.5507 35.2005 65.8896 35.6354C65.4111 35.9503 64.9621 36.3502 64.5921 36.7951C62.1551 39.6843 59.0816 41.7087 55.8404 43.5083C55.5296 43.6832 55.2287 43.8782 54.8883 44.0881C55.4655 45.5127 55.7023 46.9373 55.3076 48.407C54.4985 51.3962 52.1503 53.1307 48.8992 53.1357C44.6368 53.1457 40.3695 53.1357 36.1071 53.1357C34.5284 53.1357 34.2373 53.3706 33.8821 54.9102C33.6749 55.815 32.9695 56.3498 32.1752 56.2149C31.3168 56.0649 30.8037 55.3501 30.8827 54.4004C31.1047 51.7261 33.0435 50.0015 35.8801 49.9915C40.1919 49.9765 44.5036 49.9915 48.8203 49.9815C49.3185 49.9815 49.8415 49.9515 50.3151 49.8066C51.7211 49.3767 52.5795 47.9771 52.392 46.5225C52.1947 44.9779 51.0748 43.8132 49.5701 43.7932C46.1957 43.7382 42.8213 43.6682 39.4519 43.7882C36.6103 43.8882 33.8969 43.5433 31.2724 42.4335C30.8432 42.2536 30.34 42.2036 29.8713 42.1986C27.7253 42.1736 25.5843 42.1986 23.4383 42.1836C20.572 42.1686 18.1103 43.1184 16.1221 45.2478C15.7571 45.6377 15.392 46.0276 14.9924 46.3775C14.2623 47.0223 13.3792 47.0073 12.7872 46.3775C12.2248 45.7827 12.2199 44.8829 12.8217 44.1931C15.17 41.4938 17.9573 39.5593 21.5883 39.1644C22.2099 39.0944 22.8364 39.0844 23.4629 39.0744C24.5483 39.0594 25.6336 39.1294 26.714 39.0594C29.6444 38.8645 32.4663 39.2444 35.1747 40.4241C35.5348 40.579 35.9689 40.604 36.3735 40.604C40.3744 40.619 44.3704 40.614 48.3713 40.609C49.8069 40.609 51.2031 40.734 52.4808 41.4938C52.6535 41.5988 53.0037 41.5538 53.1912 41.4438C55.1448 40.2841 57.1379 39.1844 58.9977 37.8898C60.0337 37.17 60.8181 36.0852 61.7653 35.2205C62.8359 34.2457 63.8916 33.221 65.0904 32.4212C67.3597 30.8966 70.6059 30.6617 73.0775 32.8111C74.1233 33.7209 74.2812 34.4007 73.5461 35.5904C71.1387 39.5043 68.7312 43.4133 66.304 47.3122C66.0623 47.6971 65.7515 48.057 65.4061 48.347C59.9893 52.8558 54.5577 57.3446 49.1409 61.8534C48.5637 62.3332 47.9421 62.5132 47.212 62.5132C40.9713 62.5032 34.7307 62.5582 28.49 62.4682C27.0495 62.4482 26.122 62.9481 25.3327 64.1728C25.9099 64.7276 26.5364 65.3025 27.1235 65.9073C27.9621 66.7721 27.972 67.5968 27.1235 68.4666C25.1945 70.4461 23.2508 72.4156 21.2972 74.37C20.5177 75.1498 19.6495 75.1898 18.9835 74.54C18.3076 73.8752 18.3471 72.9604 19.1413 72.1456C20.7496 70.4961 22.3776 68.8715 23.9513 67.2769C18.5 61.7534 13.0881 56.2699 7.61707 50.7263C6.66493 51.6961 5.6536 52.7308 4.63733 53.7605C4.09467 54.3154 3.54707 54.8652 3.0044 55.4201C1.8056 56.6248 0.8584 56.5198 0 55.0802V54.3454L0 54.3504Z" fill="white"/>
<path id="Vector_2" d="M38.4603 0C40.0143 0.289923 41.6077 0.454879 43.1223 0.884764C49.6639 2.73427 54.4837 6.77819 57.6213 12.8616C59.4417 16.3906 60.2409 20.1846 60.1225 24.1536C60.0041 28.0625 58.8152 31.6666 56.9159 35.0457C56.4423 35.8854 55.574 36.1554 54.8241 35.7505C54.0644 35.3356 53.8177 34.4958 54.1976 33.606C54.8537 32.0914 55.6776 30.6268 56.1413 29.0573C58.2183 22.0241 56.7284 15.6858 52.1009 10.1373C48.7561 6.12837 44.3951 3.84398 39.2545 3.27913C33.5467 2.64929 28.416 4.22887 24.0303 8.00787C20.0293 11.4569 17.7304 15.8958 17.0989 21.1794C16.6155 25.2233 17.4591 29.0323 19.3189 32.6263C19.4965 32.9712 19.6939 33.3061 19.8468 33.666C20.2069 34.5158 19.9405 35.3656 19.2153 35.7455C18.4507 36.1454 17.5528 35.9004 17.1236 35.0457C16.4231 33.661 15.6781 32.2714 15.1996 30.8018C12.4172 22.2641 14.0699 14.5611 19.8468 7.83291C23.8576 3.15416 29.0524 0.644828 35.1549 0.104972C35.2931 0.089976 35.4312 0.0349907 35.5693 0H38.4603Z" fill="white"/>
<path id="Vector_3" d="M38.6132 21.8194C39.3285 21.8644 39.9995 21.8794 40.6605 21.9544C42.8509 22.1943 44.5579 23.9988 44.6763 26.2382C44.7305 27.3079 44.7207 28.3877 44.7059 29.4574C44.6664 32.3866 42.8164 34.2861 39.9156 34.3861C39.5061 34.4011 39.0967 34.3861 38.628 34.3861C38.5787 35.0359 38.5589 35.6607 38.4701 36.2706C38.3616 36.9904 37.8584 37.3703 37.1875 37.4602C36.5363 37.5502 35.9887 37.2703 35.6976 36.6604C35.5447 36.3455 35.5052 35.9656 35.4707 35.6057C35.4312 35.2458 35.4608 34.8759 35.4608 34.441C34.7011 34.3911 33.966 34.3661 33.2359 34.2811C31.0455 34.0312 29.2251 31.8617 29.3287 29.6573C29.3681 28.8425 29.9355 28.2177 30.7199 28.1377C31.4155 28.0677 32.0765 28.5376 32.2985 29.2624C32.8955 31.2269 33.2803 31.4618 35.4608 31.1469V25.0585C34.7356 25.0136 34.0499 24.9936 33.3641 24.9186C31.1737 24.6786 29.4668 22.8741 29.3484 20.6347C29.2941 19.59 29.304 18.5353 29.3139 17.4856C29.3435 14.4464 31.2379 12.5319 34.2472 12.4819C34.6073 12.4769 34.9675 12.4819 35.3917 12.4819C35.4411 11.8371 35.4608 11.2122 35.5545 10.5974C35.6631 9.88259 36.1613 9.49769 36.8372 9.40272C37.4884 9.31274 38.036 9.59267 38.3271 10.2025C38.48 10.5174 38.5195 10.8973 38.554 11.2572C38.5935 11.6171 38.5639 11.987 38.5639 12.4169C39.3236 12.4719 40.0587 12.4919 40.7888 12.5769C42.9841 12.8318 44.7996 14.9912 44.696 17.2006C44.6565 18.0154 44.0892 18.6403 43.3048 18.7202C42.6092 18.7902 41.9481 18.3203 41.7261 17.5955C41.1341 15.6311 40.7444 15.3911 38.6083 15.701V21.8044L38.6132 21.8194ZM35.4213 15.6461C34.8737 15.6461 34.4149 15.6261 33.9611 15.6461C33.0188 15.701 32.4367 16.2659 32.3972 17.2256C32.3577 18.2504 32.3627 19.2751 32.3972 20.2998C32.4268 21.1096 32.9152 21.7194 33.6207 21.8044C34.2028 21.8744 34.8047 21.8194 35.4164 21.8194V15.6461H35.4213ZM38.6132 25.0535V31.2419C39.0621 31.2419 39.4667 31.2519 39.8712 31.2419C41.0552 31.2069 41.6176 30.6271 41.6373 29.4124C41.6472 28.8025 41.6373 28.1927 41.6373 27.5829C41.6373 25.3385 41.2377 24.9436 39.0029 25.0186C38.8845 25.0186 38.7711 25.0385 38.6083 25.0535" fill="white"/>
<path id="Vector_4" d="M21.6228 25.0084V21.8693C22.5453 21.8693 23.4235 21.8493 24.3065 21.8893C24.4397 21.8943 24.6568 22.1792 24.6667 22.3441C24.7061 23.0739 24.7111 23.8037 24.6667 24.5335C24.6568 24.7035 24.3904 24.9784 24.2325 24.9884C23.3988 25.0334 22.5552 25.0084 21.6277 25.0084" fill="white"/>
<path id="Vector_5" d="M52.3723 25.0082C51.4596 25.0082 50.5765 25.0232 49.6984 24.9932C49.5751 24.9932 49.3629 24.7782 49.358 24.6583C49.3284 23.8585 49.3235 23.0537 49.358 22.2489C49.3629 22.1139 49.6047 21.989 49.7428 21.869C49.7724 21.844 49.8365 21.864 49.8859 21.864C50.7147 21.904 51.5435 21.939 52.3723 21.979V25.0082Z" fill="white"/>
</g>
<defs>
<clipPath id="clip0_3_1098">
<rect width="74" height="75" fill="white"/>
</clipPath>
</defs>
</svg>
