<svg width="40" height="40" viewBox="0 0 40 40" fill="none" xmlns="http://www.w3.org/2000/svg">
<path id="Vector" d="M37.571 40C36.6216 39.7396 35.6765 39.4749 34.7229 39.2231C33.8932 39.0011 33.0593 38.8047 32.234 38.5784C30.579 38.1302 30.0915 36.3244 31.2889 35.0907C31.4514 34.9242 31.6267 34.7663 31.7764 34.6254C31.2247 34.0747 30.703 33.5496 30.1599 33.0075C30.0829 33.063 29.9674 33.1441 29.8563 33.2252C27.3802 35.0523 24.6176 36.1281 21.5556 36.4184C21.205 36.4525 20.927 36.3757 20.8073 36.0171C20.6747 35.6243 20.9698 35.334 21.4915 35.2401C22.5392 35.048 23.6169 34.937 24.6133 34.587C30.3566 32.5763 33.8633 28.5678 35.0778 22.5955C35.4712 20.6702 35.3814 18.7364 34.9837 16.8196C34.9752 16.7684 34.9538 16.7215 34.9281 16.6531C34.4877 16.7172 34.1327 16.9093 33.889 17.2679C33.6794 17.571 33.6195 17.8698 33.8334 18.2412C34.5732 19.5091 34.4919 21.9381 32.7001 22.8559C32.2126 23.1078 31.9816 23.5774 31.8705 24.0811C31.6866 24.9178 31.601 25.7802 31.3915 26.6083C30.9425 28.3757 30.0273 29.8655 28.5477 30.9541C28.2055 31.206 27.7608 31.381 27.3417 31.4664C26.0416 31.7225 25.1008 31.1505 24.7886 29.8485C24.5962 29.0459 24.5705 28.2049 24.5107 27.3767C24.4594 26.651 24.485 25.921 24.4423 25.191C24.4038 24.4952 24.1172 24.1836 23.433 24.1409C22.5649 24.0854 21.6882 24.1067 20.8201 24.0683C20.3155 24.0427 19.8023 24.0128 19.3148 23.889C18.3996 23.6585 17.7966 23.0395 17.5315 22.143C17.0996 20.6702 17.0269 19.159 17.3134 17.6606C17.6128 16.0726 18.7802 15.2188 20.448 15.2956C21.0895 15.3255 21.7353 15.4621 22.3596 15.6201C23.2363 15.842 24.1001 16.0683 25.011 15.8719C25.1265 15.8463 25.2377 15.8164 25.3446 15.7695C26.0374 15.4749 26.1785 14.8815 25.6397 14.3522C24.8699 13.5923 23.9291 13.5069 22.9156 13.7204C22.2698 13.857 21.6198 14.0235 20.9655 14.0448C20.2128 14.0662 19.5671 13.7289 19.2036 13.0203C18.8401 12.3031 18.9641 11.603 19.3747 10.9456C19.7125 10.4034 20.2128 10.1644 20.85 10.1558C21.4487 10.1473 21.8122 9.72038 21.7438 9.13127C21.6241 8.07257 22.0688 7.27001 23.0481 6.79616C23.7751 6.44611 24.5449 6.39488 25.336 6.44184C25.8449 6.47172 26.3538 6.4461 26.867 6.3778C22.7402 4.31163 18.5365 4.14941 14.2044 5.79296C14.5038 6.53575 14.3242 7.21025 14.0334 7.88047C13.7982 8.40982 13.8922 8.95197 14.012 9.48986C14.136 10.0619 14.2985 10.6297 14.3669 11.206C14.5423 12.7001 13.5972 13.9168 12.0961 14.1345C11.5573 14.2113 11.0056 14.1814 10.4625 14.1985C10.253 14.207 10.0306 14.1686 9.84244 14.2284C9.67566 14.2839 9.49605 14.429 9.42762 14.5784C9.38058 14.6809 9.48322 14.8986 9.58158 15.0053C9.80823 15.2529 10.1033 15.4408 10.3214 15.6969C10.5865 16.0085 10.8602 16.3415 11.0185 16.7086C11.2665 17.2978 11.0527 17.8954 10.4754 18.2711C10.0306 18.5614 9.54309 18.7834 9.05985 19.0053C8.49536 19.2657 8.12758 19.603 8.14469 20.2988C8.15752 20.7983 8.03778 21.3063 7.9608 21.8058C7.91376 22.1046 8.02922 22.254 8.3243 22.2583C8.80326 22.2711 9.2865 22.2967 9.76546 22.2839C11.2237 22.254 12.682 22.1985 14.1018 22.6339C16.193 23.2785 17.2193 25.5027 16.3341 27.5091C16.116 28.0043 15.8252 28.4739 15.5344 28.9349C14.7561 30.1772 14.7262 31.4237 15.4617 32.6958C15.8722 33.4045 16.2657 34.1217 16.6805 34.826C16.7275 34.9072 16.8515 34.9755 16.9499 34.9925C17.4887 35.0822 18.0276 35.159 18.5707 35.2359C19.0112 35.2999 19.2592 35.5688 19.2036 35.9189C19.1523 36.2476 18.8914 36.4312 18.4766 36.397C17.0696 36.286 15.6969 35.9915 14.3798 35.4835C13.5715 35.1718 12.7718 34.8132 12.0063 34.3991C11.2408 33.9851 10.5309 33.4771 9.81678 33.0245C9.30788 33.5326 8.7776 34.0619 8.20028 34.6382C8.3414 34.762 8.52957 34.9029 8.69207 35.0694C9.90659 36.3202 9.40197 38.1217 7.71277 38.5656C6.00218 39.0139 4.2916 39.4536 2.58102 39.9018C2.52115 39.9189 2.46983 39.953 2.41424 39.9787H1.63165C1.56322 39.9488 1.4948 39.9146 1.42638 39.889C0.365815 39.5219 -0.202953 38.5443 0.0664634 37.4514C0.511215 35.6628 0.960243 33.8741 1.46059 32.0982C1.88396 30.5913 3.63303 30.1217 4.79195 31.1761C5.00149 31.3682 5.16827 31.6073 5.3821 31.8549C5.71138 31.5133 5.96797 31.2359 6.23739 30.9712C6.50253 30.7108 6.77622 30.4589 6.99004 30.2625C2.2945 23.3554 2.32016 16.5592 6.95583 9.746C6.46404 9.25507 5.93804 8.72999 5.35644 8.14941C5.22814 8.30736 5.09985 8.49093 4.94162 8.64461C3.66296 9.90395 1.8583 9.40448 1.40499 7.67129C0.968795 6.03629 0.52832 4.37994 0.122057 2.71505C0.0322517 2.36073 0.00659299 1.95945 0.0621869 1.60512C0.211863 0.72572 0.849055 0.273212 1.6402 0H2.42279C2.47838 0.0256137 2.53398 0.0640342 2.58957 0.076841C4.30015 0.520811 6.01074 0.960512 7.72132 1.41302C9.41052 1.85699 9.91514 3.65848 8.70063 4.90929C8.53812 5.07577 8.34996 5.21665 8.20456 5.34472C8.78188 5.92103 9.31216 6.45037 9.85099 6.98826C12.8274 4.71718 16.2058 3.51334 19.9947 3.51334C23.7922 3.51334 27.1835 4.72572 30.1599 6.9968C30.7073 6.4461 31.229 5.92529 31.7978 5.35326C31.6438 5.21665 31.4556 5.07577 31.2931 4.90929C30.0957 3.67556 30.5832 1.8698 32.2382 1.42156C33.0679 1.19957 33.9018 0.998933 34.7271 0.776948C35.6765 0.52508 36.6259 0.260406 37.5753 0H38.3578C39.196 0.256137 39.7434 0.802561 40 1.63927V2.42049C39.8674 2.89007 39.7306 3.36393 39.598 3.83351C39.474 4.27748 39.2089 4.46958 38.8454 4.37994C38.4947 4.29456 38.3493 3.98719 38.4605 3.53469C38.5717 3.09498 38.7085 2.65955 38.8026 2.21558C38.9352 1.59232 38.4006 1.04162 37.7848 1.1953C35.993 1.64354 34.2097 2.10459 32.4264 2.58698C31.7807 2.76201 31.601 3.48346 32.0458 3.99146C32.1741 4.14088 32.3195 4.27321 32.4563 4.40982C33.1876 5.13554 33.1919 5.69477 32.4734 6.41622C32.0244 6.86446 31.5711 7.30843 31.1477 7.73106C31.5283 8.11526 31.8833 8.47385 32.2596 8.85379C32.7386 8.3714 33.2389 7.85913 33.7478 7.35966C34.2482 6.873 34.8811 6.873 35.39 7.34685C35.5824 7.52615 35.7535 7.71825 35.9459 7.89755C36.5061 8.42263 37.216 8.23052 37.4299 7.49626C37.541 7.10779 37.6266 6.71505 37.742 6.33084C37.8447 5.99787 38.1269 5.83992 38.4305 5.91249C38.7556 5.98933 38.9437 6.27962 38.8625 6.6254C38.7641 7.05656 38.6572 7.48346 38.5246 7.90608C38.0628 9.38314 36.3522 9.84845 35.2018 8.80683C34.9923 8.61473 34.8212 8.37994 34.5903 8.10672C34.2738 8.44824 34.0258 8.72999 33.7564 8.99466C33.4912 9.25934 33.2047 9.4984 32.9866 9.69904C37.6864 16.6147 37.6779 23.4152 33.0422 30.2156C33.5426 30.715 34.0643 31.2359 34.6373 31.8079C34.7742 31.65 34.9153 31.4621 35.0821 31.2999C36.3308 30.0875 38.1312 30.5913 38.5802 32.2775C38.7684 32.9947 38.948 33.7118 39.1362 34.429C39.4184 35.4792 39.7049 36.5294 39.9914 37.5795V38.3607C39.7349 39.2017 39.1875 39.7439 38.3493 40H37.5667H37.571ZM34.6031 15.3383C34.5946 15.428 34.6031 15.4023 34.5988 15.381C33.4784 11.9232 31.3958 9.1953 28.3723 7.1889C28.2868 7.12914 28.0944 7.14194 28.0003 7.19744C27.4657 7.50907 26.8884 7.64141 26.2854 7.64568C25.8449 7.64568 25.4002 7.60299 24.9597 7.59445C24.408 7.58164 23.8649 7.64141 23.3902 7.95731C23.0524 8.1793 22.8557 8.47385 22.907 8.90502C23.0781 10.2839 22.2655 11.2316 20.8671 11.3383C20.6833 11.3511 20.4438 11.4963 20.3454 11.6542C19.9691 12.2433 20.2684 12.8623 20.9655 12.8666C21.4744 12.8709 21.9918 12.7471 22.4922 12.619C23.9034 12.2647 25.212 12.4141 26.341 13.3831C26.9098 13.8698 27.2433 14.4931 27.1279 15.2786C26.9953 16.158 26.264 16.8196 25.212 17.0245C24.1771 17.2252 23.1764 17.0374 22.1715 16.7769C21.5129 16.6062 20.8201 16.4781 20.1444 16.4781C19.1523 16.4781 18.5322 17.0203 18.4552 18.0149C18.3782 19.031 18.3782 20.0726 18.498 21.0843C18.6648 22.4675 19.2079 22.8645 20.6148 22.8943C20.8629 22.8986 21.1109 22.8943 21.3547 22.8986C22.0817 22.9157 22.8129 22.9072 23.5356 22.9712C24.8442 23.0864 25.537 23.8079 25.6226 25.1099C25.6696 25.81 25.6568 26.5144 25.6867 27.2145C25.7124 27.8378 25.7124 28.4653 25.7979 29.0843C25.9775 30.3565 26.7943 30.7108 27.8848 30.0149C27.9404 29.9808 27.996 29.9466 28.0473 29.904C29.1335 28.9861 29.8562 27.825 30.2283 26.4675C30.455 25.6307 30.5148 24.7513 30.7073 23.9018C30.8954 23.0694 31.2846 22.3437 32.0501 21.8741C33.0764 21.2423 33.4741 19.8335 32.8156 18.8218C32.2896 18.0107 32.5333 16.9178 33.1064 16.3842C33.5254 15.9957 34.0386 15.7183 34.6031 15.3298M13.2337 6.27962C7.95652 8.80683 3.76132 15.0139 4.85182 22.2839C5.27519 25.1185 6.44266 27.6286 8.28153 29.8228C10.129 32.0213 12.404 33.588 15.2094 34.5486C14.9058 34.0406 14.6363 33.6265 14.4011 33.1953C13.5116 31.5859 13.5501 29.9936 14.4995 28.4184C14.709 28.0726 14.9314 27.7353 15.1196 27.381C15.9963 25.7417 15.265 24.0598 13.4518 23.6841C12.5794 23.5048 11.6728 23.492 10.779 23.4536C9.96218 23.4152 9.13682 23.4877 8.3243 23.4365C7.13972 23.3597 6.64365 22.6809 6.82326 21.5112C6.89596 21.0245 6.99432 20.5336 7.00287 20.0384C7.0157 19.1932 7.40914 18.5998 8.11903 18.2028C8.5595 17.9552 9.02991 17.7545 9.47894 17.5283C10.0477 17.2423 10.0691 17.0672 9.60723 16.619C9.30788 16.3287 8.9786 16.0726 8.69635 15.7652C7.8154 14.7962 8.2516 13.3959 9.53026 13.1014C9.88093 13.0203 10.253 13.0502 10.6165 13.0288C11.0826 13.0075 11.5616 13.0416 12.0149 12.9562C12.9129 12.7812 13.3406 12.1494 13.2166 11.2529C13.1567 10.8175 13.0498 10.3863 12.9386 9.95945C12.6863 8.9904 12.6307 8.04269 13.0968 7.10352C13.2037 6.89007 13.1866 6.61686 13.2422 6.28389M31.1392 32.2519C31.6182 32.73 32.1185 33.2209 32.6103 33.7204C33.132 34.254 33.132 34.8773 32.6231 35.4194C32.435 35.6201 32.2297 35.7994 32.0501 36.0043C31.6053 36.508 31.7849 37.2337 32.4307 37.4088C34.214 37.8911 35.9972 38.3522 37.7891 38.8047C38.4049 38.9584 38.9565 38.4034 38.8069 37.7887C38.3578 36 37.896 34.2113 37.4127 32.4312C37.2374 31.7866 36.5147 31.6073 36.0058 32.0512C35.8476 32.1878 35.7107 32.3415 35.561 32.4909C34.8683 33.1825 34.2995 33.1868 33.611 32.5037C33.1534 32.047 32.7001 31.5774 32.2682 31.1334C31.879 31.5219 31.5241 31.8762 31.1435 32.2519M7.75553 31.1206C7.29367 31.5902 6.83182 32.0683 6.3614 32.5379C5.72849 33.1654 5.13834 33.1612 4.49687 32.5294C4.32154 32.3543 4.15475 32.1708 3.96231 32.0128C3.4748 31.6158 2.77346 31.7994 2.60668 32.4056C2.11916 34.1985 1.65303 36 1.204 37.8015C1.05432 38.3949 1.60599 38.9541 2.20041 38.8047C4.00508 38.3565 5.80119 37.8911 7.5973 37.4002C8.22166 37.2295 8.397 36.5123 7.97363 36.0171C7.82395 35.8378 7.64862 35.6798 7.48184 35.5133C6.83609 34.8602 6.83609 34.2753 7.49039 33.6222C7.95652 33.1569 8.42693 32.6916 8.88024 32.2433C8.49963 31.8634 8.14896 31.5133 7.75125 31.1206M8.86313 7.77375C8.84603 7.74813 8.8332 7.72252 8.81609 7.70544C8.38417 7.27001 7.95225 6.83885 7.52032 6.40768C6.82754 5.71185 6.82326 5.14835 7.5075 4.45678C7.66145 4.29883 7.82823 4.14941 7.96935 3.98292C8.39272 3.48773 8.21739 2.76628 7.5973 2.59979C5.80547 2.10886 4.00508 1.64354 2.20041 1.1953C1.60599 1.04589 1.05432 1.60085 1.19972 2.19424C1.64875 3.99573 2.11489 5.79723 2.6024 7.59018C2.76918 8.19637 3.46625 8.37994 3.95804 7.98719C4.06067 7.90608 4.15475 7.81644 4.24028 7.71825C5.04853 6.77054 5.78408 6.74493 6.6351 7.73106C6.99004 8.14088 7.37492 8.52508 7.72987 8.90502C8.14469 8.49093 8.49536 8.14087 8.85886 7.77375" fill="#212121"/>
</svg>
