<svg width="40" height="46" viewBox="0 0 40 46" fill="none" xmlns="http://www.w3.org/2000/svg">
<g id="Group 23">
<path id="Vector" d="M18.7648 45.2271C17.9819 45.1159 17.1904 45.0303 16.4118 44.8892C12.2747 44.149 8.71524 42.2752 5.78038 39.2761C1.54066 34.938 -0.401659 29.6929 0.068946 23.6606C0.556664 17.4315 3.46586 12.4944 8.53555 8.83655C8.83503 8.61836 8.90776 8.4558 8.78369 8.09643C7.37616 3.92516 10.5677 -0.237568 14.9657 0.0105695C17.6054 0.160307 19.9413 2.14113 20.5317 4.72518C20.5659 4.86636 20.5959 5.01182 20.6344 5.17439C21.4729 5.27279 22.32 5.33696 23.1585 5.46959C27.8731 6.22256 31.8262 8.40018 34.975 11.9725C38.6928 16.1865 40.4126 21.1578 39.9163 26.7409C39.2275 34.4888 35.2188 40.0462 28.2411 43.4431C26.1447 44.4613 23.8987 44.9918 21.5713 45.1544C21.4558 45.163 21.3446 45.2015 21.229 45.2271H18.7562H18.7648ZM35.5483 35.5113C34.8424 35.5113 34.1964 35.5113 33.5546 35.5113C33.0498 35.5113 32.7418 35.2375 32.7589 34.8268C32.7717 34.4332 33.0669 34.1893 33.5546 34.1893C34.3632 34.185 35.1761 34.1722 35.9846 34.1979C36.2927 34.2064 36.451 34.0995 36.5879 33.8299C38.2393 30.6213 38.911 27.2158 38.6115 23.6264C38.5259 22.5825 38.2992 21.5472 38.1409 20.5118H34.9579C34.9279 20.5632 34.9023 20.5974 34.8894 20.6402C34.3247 22.6766 33.1353 24.3152 31.5952 25.7142C30.5513 26.6639 29.8497 26.6725 28.8272 25.7227C28.2582 25.1965 27.7705 24.5761 27.2314 24.0157C27.1159 23.8959 26.9276 23.7804 26.7694 23.7761C26.1233 23.7504 25.473 23.7547 24.827 23.7676C24.1981 23.7804 23.8131 24.1654 23.8045 24.7943C23.7917 25.7527 23.7917 26.7067 23.8045 27.665C23.8131 28.2896 24.1981 28.6747 24.827 28.7003C25.2549 28.7175 25.6827 28.7046 26.1062 28.7089C27.4881 28.7217 28.4678 29.6929 28.4806 31.0705C28.4892 31.7336 28.4806 32.3967 28.4806 33.0599C28.4849 33.8043 28.8528 34.1808 29.5844 34.1893C29.8368 34.1893 30.085 34.1808 30.3374 34.1936C30.7224 34.2193 30.9748 34.4845 30.9748 34.8482C30.9748 35.2075 30.7267 35.4813 30.3417 35.507C30.0636 35.5241 29.7812 35.5156 29.5031 35.5113C28.1512 35.4942 27.1715 34.5187 27.1587 33.1625C27.1501 32.4695 27.1629 31.7764 27.1587 31.0876C27.1501 30.4288 26.7694 30.048 26.1148 30.0352C25.6741 30.0266 25.2292 30.0352 24.7885 30.0266C23.4623 29.9924 22.4911 29.0084 22.4783 27.6821C22.4697 26.711 22.4697 25.7398 22.4783 24.7687C22.4911 23.4424 23.4751 22.4627 24.7971 22.4413C25.2463 22.4328 25.6998 22.4413 26.2175 22.4413C25.4902 21.0252 25.118 19.6177 25.6527 18.1075C26.1875 16.593 27.2228 15.5748 28.7373 15.0571C31.0347 14.2656 34.4787 15.4849 35.0306 19.1556H37.6189C36.8018 15.0913 30.7524 8.71676 26.9747 7.96807C26.9747 8.60553 26.9875 9.23443 26.9747 9.85905C26.9448 11.0869 25.9736 12.0581 24.75 12.1008C24.5019 12.1094 24.2495 12.1008 23.9971 12.1008C23.3125 12.1137 22.9318 12.4859 22.9189 13.1618C22.9147 13.41 22.9189 13.6624 22.9189 13.9148C22.889 14.9801 22.1745 15.8699 21.1306 16.0924C20.7456 16.1737 20.3435 16.1566 19.9456 16.1652C19.1242 16.178 18.7733 16.5288 18.7733 17.3588C18.7733 18.3727 18.7819 19.3909 18.7733 20.4049C18.7562 21.7012 17.768 22.6809 16.4674 22.7023C16.0267 22.7108 15.5861 22.7023 15.1411 22.7023C13.6053 22.7023 12.7325 21.9065 12.5913 20.3792C12.54 19.8188 12.172 19.4637 11.6116 19.438C11.3036 19.4252 10.9913 19.4423 10.6832 19.4294C10.2682 19.4123 9.99871 19.1514 9.99443 18.7749C9.99443 18.3984 10.2554 18.1289 10.6704 18.1117C10.9356 18.0989 11.2009 18.1075 11.4661 18.1117C12.8908 18.116 13.802 18.9674 13.9176 20.4006C13.9689 21.0081 14.3368 21.3632 14.9529 21.376C15.4107 21.3846 15.8642 21.3803 16.3219 21.376C17.0792 21.3717 17.4471 20.9995 17.4514 20.2295C17.4514 19.1984 17.4428 18.1674 17.4514 17.1363C17.4685 15.8357 18.4568 14.8603 19.7573 14.8389C20.0525 14.8346 20.3477 14.8475 20.6387 14.8346C21.1948 14.8047 21.567 14.4325 21.5927 13.872C21.6098 13.5768 21.5927 13.2816 21.6013 12.9907C21.644 11.7885 22.6109 10.8217 23.8131 10.7789C24.1083 10.7703 24.4035 10.7874 24.6944 10.7703C25.2506 10.7404 25.6356 10.3682 25.6527 9.81627C25.6741 9.09325 25.6656 8.37451 25.6527 7.65149C25.6527 7.55309 25.5543 7.39051 25.473 7.36484C23.9372 6.8814 22.3628 6.61615 20.7242 6.55198C20.6686 6.83006 20.6344 7.09104 20.5702 7.34345C19.8515 10.0901 18.2428 12.2677 16.1594 14.1202C14.9315 15.2111 14.2085 15.1812 12.955 14.1073C11.6587 12.995 10.6148 11.6687 9.75057 10.197C9.67356 10.0601 9.59228 9.9275 9.49388 9.76493C5.04024 12.9223 2.3963 17.1363 1.51499 22.5012C1.68184 22.5098 1.79735 22.5226 1.91286 22.5226C2.73856 22.5226 3.56426 22.5397 4.38568 22.5055C4.88623 22.4841 5.23276 22.0777 5.25416 21.5557C5.27127 21.145 5.24988 20.73 5.26271 20.3193C5.30549 19.1385 6.28521 18.1417 7.43177 18.1075C7.86387 18.0946 8.15051 18.3043 8.19757 18.6722C8.25319 19.0829 8.00933 19.361 7.53445 19.4294C6.90127 19.5236 6.59752 19.8615 6.58896 20.4904C6.58468 20.7685 6.58896 21.0509 6.58896 21.329C6.58896 22.9076 5.64775 23.8403 4.05197 23.8446C3.17494 23.8446 2.29362 23.8446 1.40803 23.8446C1.39092 23.9472 1.37808 24.0029 1.37808 24.0585C1.20268 26.8179 1.62622 29.4833 2.6316 32.0588C2.97814 32.9486 2.98242 32.9444 3.92363 32.9444C4.12898 32.9444 4.33434 32.9444 4.54397 32.9444C5.45095 32.9444 5.82316 32.5893 5.88733 31.6866C5.96434 30.617 6.70447 29.7228 7.75264 29.4918C8.10773 29.4148 8.47994 29.4148 8.84359 29.3763C9.79763 26.7238 11.2522 25.4789 13.4641 25.4232C14.4652 25.3976 15.385 25.6457 16.2235 26.1933C17.3915 26.9548 18.0717 28.0543 18.3626 29.4105C18.6749 29.4105 18.953 29.4105 19.2311 29.4105C20.7499 29.4191 21.7767 30.4459 21.7809 31.9646C21.7852 33.231 21.7852 34.4973 21.7809 35.7637C21.7809 36.23 21.9606 36.5851 22.3542 36.8375C22.7778 37.1071 23.2013 37.3723 23.612 37.6547C24.3308 38.151 24.6901 38.844 24.6944 39.7125C24.703 40.7564 24.6944 41.8046 24.6944 42.8484C24.6944 42.9853 24.7072 43.1265 24.7158 43.2677C29.0881 42.2324 33.2637 39.1392 35.5568 35.5027M18.414 30.7411C17.8321 33.1625 16.523 35.0364 14.6791 36.5509C13.8833 37.2055 13.3571 37.1712 12.5271 36.5637C12.386 36.461 12.2448 36.3498 12.1164 36.23C10.5164 34.7155 9.28424 32.9786 8.80936 30.7839C7.76975 30.6084 7.27348 30.9892 7.18791 32.0203C7.08524 33.2609 6.0713 34.2278 4.82205 34.262C4.46268 34.2749 4.10331 34.262 3.71399 34.262C7.47455 41.3468 15.8642 45.0859 23.351 43.5543C23.351 42.211 23.3767 40.8591 23.3297 39.5114C23.3211 39.2419 23.0516 38.9339 22.8248 38.7371C22.4954 38.4504 22.0975 38.2365 21.7253 38.0055C20.844 37.4664 20.4333 36.6835 20.4504 35.6482C20.4675 34.399 20.459 33.1454 20.4504 31.8962C20.4461 31.2587 20.0525 30.7967 19.4621 30.7411C19.1156 30.7111 18.7648 30.7368 18.4183 30.7368M14.5593 1.31544C11.3378 1.32827 9.01899 4.44709 10.0073 7.5103C10.7431 9.79487 12.1464 11.6473 13.9561 13.1918C14.5379 13.6881 14.6149 13.6838 15.1882 13.1961C16.9508 11.6859 18.3241 9.88045 19.0942 7.68144C20.198 4.53694 17.8706 1.29832 14.555 1.31115M30.209 16.1352C28.0143 16.1352 26.3201 18.1417 26.825 20.2637C27.2827 22.1889 28.4721 23.682 29.9695 24.9398C30.1877 25.1238 30.3417 25.0211 30.5085 24.8842C31.8904 23.7077 32.9771 22.313 33.5204 20.5632C34.2092 18.3385 32.5364 16.1352 30.209 16.1352ZM13.6138 26.7366C11.3977 26.7281 9.69067 28.7602 10.2212 30.8951C10.6918 32.7989 11.8683 34.2834 13.3528 35.5327C13.5625 35.7081 13.7165 35.6439 13.8919 35.4942C15.2866 34.3091 16.3818 32.9016 16.9166 31.1347C17.5883 28.9314 15.9198 26.7452 13.6138 26.7366Z" fill="#212121"/>
<path id="Vector_2" d="M14.5678 4.15186C15.663 4.15186 16.5572 5.05455 16.5529 6.14978C16.5486 7.24073 15.6374 8.13487 14.5421 8.12632C13.4683 8.11776 12.5827 7.22789 12.5784 6.14978C12.5784 5.05455 13.4726 4.15186 14.5678 4.15186ZM15.2267 6.1455C15.2309 5.79896 14.9486 5.49521 14.5978 5.47809C14.2341 5.46098 13.9132 5.76047 13.909 6.12839C13.9047 6.47921 14.187 6.77868 14.5379 6.7958C14.9015 6.81291 15.2224 6.50915 15.2267 6.1455Z" fill="#212121"/>
<path id="Vector_3" d="M28.2197 19.4849C28.2197 18.3896 29.1181 17.4912 30.209 17.4912C31.3043 17.4912 32.1984 18.3982 32.1899 19.4934C32.1813 20.5673 31.2957 21.4571 30.2219 21.4657C29.1266 21.4742 28.2197 20.5801 28.2197 19.4849ZM30.8679 19.4849C30.8679 19.1383 30.5812 18.8388 30.2347 18.8217C29.8668 18.8089 29.5502 19.1127 29.5502 19.4763C29.5502 19.8271 29.8368 20.1266 30.1834 20.1394C30.547 20.1523 30.8679 19.8485 30.8679 19.4849Z" fill="#212121"/>
<path id="Vector_4" d="M13.6181 28.0927C14.709 28.1013 15.5989 29.0168 15.5818 30.112C15.5647 31.203 14.6491 32.0843 13.5539 32.0629C12.4801 32.0415 11.6073 31.1431 11.6116 30.065C11.6159 28.974 12.5229 28.0799 13.6181 28.0884M14.2555 30.0906C14.2641 29.7441 13.9817 29.4361 13.6309 29.419C13.2673 29.3976 12.9421 29.6971 12.9336 30.0607C12.925 30.4115 13.2074 30.7153 13.5539 30.7324C13.9176 30.7538 14.2427 30.4543 14.2513 30.0864" fill="#212121"/>
</g>
</svg>
