<svg width="40" height="40" viewBox="0 0 40 40" fill="none" xmlns="http://www.w3.org/2000/svg">
<g id="Group 21">
<path id="Vector" d="M38.1769 25.603C37.3256 25.5987 36.778 25.121 36.2689 24.5713C36.0421 24.3261 35.8026 24.0978 35.5587 23.8695C35.1993 23.5312 35.0282 23.1169 34.9769 22.6391C34.9641 22.5165 34.8913 22.3516 34.7972 22.2966C33.8261 21.7639 33.3512 20.9521 33.3555 19.8105C32.41 20.1657 31.4731 20.191 30.5148 19.8021C30.4891 20.0727 30.4934 20.3094 30.4378 20.5335C30.1854 21.5652 29.5223 22.2332 28.4827 22.4826C27.9437 22.6095 27.4859 22.7998 27.0025 23.0957C26.2153 23.582 25.8773 24.2627 25.6806 25.0745C25.6249 25.3155 25.6292 25.5734 25.6292 25.8271C25.6249 27.5648 25.6292 29.2983 25.6292 31.036C25.6292 31.1671 25.6378 31.3024 25.6121 31.4335C25.5479 31.7675 25.3297 31.9366 24.9875 31.9282C24.6624 31.9282 24.4485 31.7633 24.3971 31.4462C24.3629 31.239 24.3715 31.0233 24.3715 30.8119C24.3715 29.3406 24.3971 27.8692 24.3629 26.3978C24.3287 24.9603 24.5768 23.6327 25.7019 22.4869C25.2271 22.2882 24.8292 22.0387 24.4014 21.9541C22.7458 21.6455 21.9372 20.7491 21.873 19.0706C21.873 19.0072 21.8602 18.9438 21.8474 18.8381C20.7479 19.3454 19.657 19.3539 18.5361 18.8338C18.5233 18.9987 18.5062 19.1256 18.4976 19.2482C18.4206 20.6604 17.3767 21.7089 15.965 21.8949C15.5072 21.9541 15.0794 22.2205 14.6345 22.3939C14.673 22.5122 14.6773 22.5588 14.6986 22.5841C15.6527 23.5693 16.0377 24.7447 16.012 26.0976C15.9778 27.8185 16.0035 29.5435 16.0035 31.2686C16.0035 31.6195 15.9222 31.907 15.52 31.9831C15.0623 32.0719 14.7671 31.8055 14.7671 31.3024C14.7628 29.4716 14.7671 27.6451 14.7671 25.8144C14.7628 24.4064 13.9543 23.2099 12.7008 22.7321C12.5639 22.6814 12.4227 22.6349 12.2772 22.6095C10.797 22.3812 9.97133 21.4891 9.88577 20.0219C9.88577 19.9712 9.87721 19.9204 9.86866 19.8739C9.39379 19.9458 8.92747 20.0727 8.46116 20.0769C7.99912 20.0769 7.54136 19.9543 7.04938 19.8824C7.03655 20.0008 7.01944 20.1657 6.99804 20.3306C6.8697 21.3664 6.27077 22.0472 5.31247 22.4192C5.10284 22.4996 5.06434 22.6095 4.99161 22.7998C4.85043 23.1718 4.67931 23.5566 4.4269 23.8652C4.0761 24.2965 3.65684 24.6812 3.23759 25.0491C3.01512 25.2436 2.73705 25.4296 2.45469 25.5057C2.17661 25.5818 2.13811 25.7002 2.13811 25.9412C2.14667 27.6916 2.13811 29.442 2.14239 31.1882C2.14239 31.518 2.0825 31.8013 1.71458 31.9028C1.24826 32.0296 0.910293 31.7675 0.906015 31.2517C0.897459 30.2454 0.901737 29.2391 0.906015 28.2286C0.906015 27.3026 0.918849 26.3725 0.910293 25.4465C0.910293 25.3366 0.837565 25.2013 0.752003 25.1294C-0.219128 24.2458 -0.253353 23.2141 0.670719 22.2924C1.03864 21.9245 1.40655 21.5567 1.78303 21.1973C2.55309 20.4574 3.5285 20.449 4.34562 21.1381C4.46968 21.2396 4.70926 21.2861 4.86755 21.2481C5.2868 21.155 5.60766 20.8718 5.68039 20.4532C5.76167 19.9881 5.74884 19.5061 5.74456 19.0326C5.74456 18.9311 5.5991 18.8211 5.51354 18.7281C4.36701 17.4935 3.67395 16.0687 3.65256 14.369C3.61834 11.811 5.77451 9.64624 8.3756 9.60819C11.0024 9.57014 13.227 11.6884 13.2441 14.2633C13.2569 15.9757 12.5853 17.4343 11.4216 18.6732C11.212 18.8973 11.1008 19.1087 11.135 19.4088C11.1478 19.5272 11.135 19.6456 11.135 19.7682C11.135 20.8252 11.5115 21.2523 12.5681 21.4003C12.6195 21.4087 12.6794 21.4087 12.7222 21.4341C13.3211 21.8062 13.7831 21.6074 14.3222 21.2227C14.7457 20.9225 15.3104 20.7534 15.8366 20.6561C16.6495 20.5081 17.2056 19.9965 17.2484 19.1805C17.2655 18.8381 17.2741 18.4914 17.2441 18.1489C17.2313 17.9967 17.1286 17.836 17.0259 17.7176C15.8323 16.3689 15.0708 14.8425 15.0751 13.0118C15.0794 10.7963 16.611 8.81332 18.7714 8.19602C20.9361 7.57872 23.2763 8.45393 24.4912 10.3354C25.0003 11.1261 25.2784 11.9844 25.3041 12.9188C25.3554 14.7791 24.5469 16.3012 23.3789 17.688C23.242 17.8529 23.1607 18.0939 23.1394 18.3138C23.1009 18.652 23.118 19.003 23.1394 19.3454C23.1779 20.0008 23.7169 20.6181 24.3715 20.673C25.1715 20.7365 25.826 21.1001 26.4549 21.5356C26.656 21.6709 26.7929 21.7005 27.0239 21.6032C27.3533 21.4679 27.7084 21.3918 28.0592 21.3199C28.6239 21.2058 29.0431 20.9056 29.1715 20.3559C29.2656 19.9374 29.2442 19.4892 29.2314 19.0537C29.2314 18.9395 29.0774 18.8169 28.9833 18.7112C27.7298 17.3498 27.0068 15.7854 27.1565 13.9124C27.3276 11.7561 29.0859 9.9549 31.2678 9.63779C33.4197 9.32491 35.6186 10.6018 36.4058 12.6482C37.1245 14.517 36.6197 16.2124 35.6015 17.8191C35.4175 18.1066 35.1908 18.373 34.9555 18.6309C34.4592 19.1721 34.4763 20.4363 35.0068 20.9521C35.332 21.2734 35.4689 21.2777 35.8368 20.9986C36.5084 20.487 37.4325 20.487 38.0614 21.0451C38.5876 21.5144 39.0924 22.0133 39.5673 22.5334C40.1448 23.1634 40.1277 24.0851 39.6144 24.77C39.4946 24.9307 39.4133 25.1675 39.4133 25.3662C39.4047 27.3534 39.4133 29.3406 39.4133 31.332C39.4133 31.7759 39.1865 31.9916 38.7844 31.9831C38.3908 31.9747 38.1855 31.7548 38.1855 31.3024C38.1812 29.5816 38.1855 27.8565 38.1855 26.1315V25.5945L38.1769 25.603ZM17.689 12.8765C17.3254 13.3881 16.9789 13.8574 16.6623 14.3436C16.5981 14.4451 16.5896 14.6227 16.6281 14.7411C16.966 15.6924 17.4837 16.5338 18.2623 17.1976C19.5158 18.2673 20.8933 18.2673 22.134 17.1807C23.1094 16.3266 23.6613 15.2358 23.965 13.9927C24.1148 13.3881 23.888 12.961 23.4645 12.589C22.8484 12.0478 21.9843 11.959 21.3126 12.4368C20.1875 13.2359 19.0067 13.4388 17.689 12.8807M6.13814 14.2379C5.81301 14.6946 5.49215 15.13 5.19268 15.5782C5.14134 15.6543 5.15418 15.8065 5.19268 15.9038C5.47076 16.6733 5.88574 17.3667 6.48039 17.9375C7.80661 19.2101 9.24405 19.1721 10.5147 17.836C11.1991 17.1172 11.6612 16.2759 11.8708 15.3119C11.9136 15.1174 11.9008 14.8848 11.8323 14.703C11.4729 13.7306 10.3007 13.3035 9.41946 13.8828C8.3756 14.5677 7.3189 14.7537 6.13814 14.2379ZM29.6164 14.2379C29.3041 14.6734 29.0132 15.0539 28.7608 15.4598C28.6795 15.5909 28.6453 15.815 28.6966 15.9545C29.0389 16.8932 29.595 17.6838 30.4036 18.3096C31.302 19.003 32.4656 19.0452 33.3769 18.3687C34.3951 17.6119 35.0282 16.6056 35.3277 15.4006C35.3919 15.1427 35.3491 14.8087 35.2421 14.5635C34.8571 13.6967 33.7405 13.3416 32.9277 13.8743C31.871 14.5635 30.8057 14.7791 29.6121 14.2422M16.4356 12.3607C16.5896 12.145 16.735 11.9252 16.8933 11.718C17.1714 11.3586 17.5051 11.291 17.873 11.5404C18.7586 12.1408 19.6227 12.0901 20.4826 11.4939C21.0474 11.1007 21.672 10.8851 22.365 10.9189C22.7372 10.9358 23.1094 11.0246 23.4816 11.0796C22.8356 9.85342 21.2228 9.07123 19.7425 9.26572C17.98 9.49826 16.7479 10.6229 16.4398 12.3607M5.09429 13.5149C5.11568 13.4811 5.12851 13.4388 5.15418 13.4092C5.68894 12.6989 5.77878 12.6778 6.56596 13.0794C7.21195 13.4092 7.84511 13.3923 8.47399 13.0202C8.79485 12.83 9.12427 12.6482 9.47507 12.5298C10.1253 12.3099 10.7885 12.3649 11.4601 12.5932C10.8697 11.4601 9.3724 10.7033 8.09752 10.8724C6.57879 11.0711 5.3253 12.1323 5.09001 13.5192M34.9598 12.6059C34.1854 11.291 32.6582 10.6314 31.1993 10.9274C29.9202 11.1853 28.671 12.3733 28.5512 13.4515C28.5897 13.4261 28.6239 13.4092 28.6496 13.3839C29.2057 12.6947 29.2656 12.682 30.0357 13.0794C30.6517 13.3923 31.2849 13.443 31.871 13.0583C32.8207 12.4368 33.8132 12.2042 34.9683 12.6101M1.87715 24.4233C2.0825 24.3388 2.21939 24.3219 2.2964 24.2458C2.74132 23.8272 3.18625 23.4044 3.60123 22.9604C3.86219 22.6814 3.79374 22.3178 3.48999 22.0472C3.21192 21.8019 2.92101 21.8062 2.63437 22.0768C2.24079 22.4531 1.85576 22.842 1.47073 23.2268C1.27393 23.4213 1.14987 23.6623 1.31671 23.8991C1.46217 24.1105 1.69747 24.2584 1.87715 24.4233ZM36.8721 21.8019C36.671 21.988 36.4058 22.1275 36.3288 22.3347C36.2603 22.5249 36.3288 22.8463 36.4657 23.0069C36.8036 23.4128 37.2058 23.7722 37.5908 24.1401C37.9117 24.4487 38.2283 24.4276 38.5662 24.0893C38.8315 23.8272 38.8229 23.5185 38.5277 23.2183C38.1641 22.8463 37.7962 22.4784 37.4154 22.1275C37.2871 22.0091 37.1074 21.9372 36.8721 21.8019Z" fill="#212121"/>
<path id="Vector_2" d="M9.55819 35.3775C10.8634 36.3086 12.246 37.0739 13.753 37.5798C20.7601 39.9394 27.1231 38.783 32.8249 34.0936C33.0095 33.9448 33.2672 33.7833 33.4818 33.796C33.6665 33.8088 33.9455 34.0341 33.9885 34.2084C34.0357 34.404 33.9327 34.7356 33.7738 34.8674C33.0782 35.4541 32.3741 36.0365 31.6184 36.5467C24.7402 41.1681 15.8654 41.1468 9.00003 36.5084C8.79824 36.3724 8.66084 36.3426 8.43328 36.4574C7.40283 36.9676 6.20064 36.687 5.4965 35.7942C4.80953 34.9226 4.83959 33.6855 5.5609 32.8394C6.28222 31.9891 7.50158 31.7553 8.49339 32.274C9.49808 32.8012 9.98325 33.9321 9.66983 35.0289C9.63548 35.1437 9.59684 35.2543 9.5539 35.3818M8.50198 34.37C8.51057 33.8088 7.96958 33.2603 7.39854 33.2518C6.83179 33.2433 6.27363 33.7747 6.26075 34.3402C6.24787 34.9567 6.75021 35.4711 7.36848 35.4753C7.92665 35.4753 8.4891 34.9311 8.49769 34.3742" fill="#212121"/>
<path id="Vector_3" d="M18.3486 1.22494C13.977 1.30154 9.87117 2.80371 6.33964 5.81654C6.22821 5.91441 6.12106 6.01229 6.00106 6.10165C5.68819 6.33144 5.34961 6.31016 5.1396 6.04207C4.91245 5.74845 4.97674 5.44631 5.2296 5.22078C5.69676 4.79949 6.17678 4.38672 6.67822 4.01224C10.5183 1.15686 14.8385 -0.204871 19.6343 0.0249209C23.3802 0.203648 26.8174 1.36112 29.9118 3.46755C30.1646 3.64202 30.3361 3.65904 30.6189 3.51861C31.5747 3.042 32.7876 3.30584 33.4476 4.08033C34.1248 4.88035 34.1848 6.07612 33.5976 6.95273C33.0019 7.83786 31.8876 8.21659 30.8675 7.87616C29.8475 7.53572 29.1918 6.57825 29.2518 5.50589C29.2518 5.42503 29.2475 5.33567 29.2818 5.26759C29.5646 4.72715 29.2475 4.48459 28.8318 4.2165C25.7202 2.22497 22.313 1.26324 18.3529 1.22494M32.7404 5.62504C32.7362 5.02077 32.2433 4.5314 31.6347 4.52715C31.0604 4.52289 30.4904 5.09737 30.5032 5.6676C30.5161 6.22931 31.0775 6.76124 31.6433 6.75273C32.2133 6.73996 32.7447 6.19526 32.7362 5.62504" fill="#212121"/>
<path id="Vector_4" d="M35.0015 29.4622C35.0015 28.8618 34.9981 28.2576 35.0015 27.6571C35.0049 27.204 35.1713 26.9963 35.5075 27.0001C35.8404 27.0001 35.9966 27.2153 36 27.6722C36 28.8882 36 30.1042 36 31.324C36 31.7809 35.8404 31.9924 35.5109 31.9999C35.1781 32.0037 35.0083 31.796 35.0049 31.3466C34.9981 30.7198 35.0049 30.0929 35.0049 29.4698" fill="#212121"/>
<path id="Vector_5" d="M27.9985 29.5075C27.9985 30.1239 27.9985 30.7366 27.9985 31.3531C27.9985 31.7804 27.8352 31.9922 27.5188 31.9998C27.1854 32.0074 27.0085 31.7994 27.0051 31.3531C26.9983 30.1126 26.9983 28.8683 27.0051 27.6278C27.0051 27.2004 27.1786 27 27.5018 27C27.825 27 27.9951 27.208 27.9985 27.6278C28.0019 28.2556 27.9985 28.8834 27.9985 29.5075Z" fill="#212121"/>
<path id="Vector_6" d="M3.99846 29.4981C3.99846 30.1141 3.99846 30.7264 3.99846 31.3424C3.99846 31.7959 3.83205 32.0037 3.4923 31.9999C3.16294 31.9962 3.00347 31.7959 3 31.3613C3 30.1217 3 28.8783 3 27.6387C3 27.2004 3.15601 27.0038 3.48883 27.0001C3.83552 26.9963 3.99499 27.1966 3.99846 27.6539C4.00193 28.2699 3.99846 28.8821 3.99846 29.4981Z" fill="#212121"/>
<path id="Vector_7" d="M12.995 29.5018C12.995 30.1291 12.9985 30.7565 12.995 31.38C12.995 31.8033 12.8221 32.0074 12.4902 31.9998C12.1686 31.996 12.0026 31.8033 12.0026 31.3951C11.9991 30.1291 11.9991 28.8669 12.0026 27.6009C12.0026 27.1928 12.1686 27.0038 12.4902 27.0001C12.8256 26.9963 12.995 27.1928 12.9985 27.6198C13.0019 28.2472 12.9985 28.8745 12.9985 29.498" fill="#212121"/>
</g>
</svg>
