<svg width="39" height="39" viewBox="0 0 39 39" fill="none" xmlns="http://www.w3.org/2000/svg">
<g id="Group">
<path id="Vector" d="M19.1977 3.45879C24.3235 3.45879 24.9314 3.47799 26.9552 3.57078C29.0477 3.66676 31.2027 4.14351 32.7273 5.66813C34.2663 7.20714 34.7287 9.34129 34.8247 11.4402C34.9174 13.464 34.9366 14.0719 34.9366 19.1977C34.9366 24.3235 34.9174 24.9314 34.8247 26.9552C34.7303 29.0365 34.2423 31.2123 32.7273 32.7273C31.1883 34.2663 29.0557 34.7287 26.9552 34.8247C24.9314 34.9174 24.3235 34.9366 19.1977 34.9366C14.0719 34.9366 13.464 34.9174 11.4402 34.8247C9.37489 34.7303 7.17035 34.2311 5.66813 32.7273C4.13711 31.1963 3.66676 29.0413 3.57078 26.9552C3.47799 24.9314 3.45879 24.3235 3.45879 19.1977C3.45879 14.0719 3.47799 13.464 3.57078 11.4402C3.66516 9.36689 4.15791 7.17835 5.66813 5.66813C7.20394 4.13231 9.34609 3.66676 11.4402 3.57078C13.464 3.47799 14.0719 3.45879 19.1977 3.45879ZM19.1977 0C13.9839 0 13.3296 0.0223973 11.2819 0.115186C8.31421 0.25117 5.36736 1.07667 3.22202 3.22202C1.06867 5.37536 0.25117 8.31581 0.115186 11.2819C0.0223973 13.3296 0 13.9839 0 19.1977C0 24.4115 0.0223973 25.0658 0.115186 27.1136C0.25117 30.078 1.07987 33.0329 3.22202 35.1734C5.37376 37.3252 8.31901 38.1443 11.2819 38.2802C13.3296 38.373 13.9839 38.3954 19.1977 38.3954C24.4115 38.3954 25.0658 38.373 27.1136 38.2802C30.0796 38.1443 33.0297 37.3172 35.1734 35.1734C37.3284 33.0185 38.1443 30.0796 38.2802 27.1136C38.373 25.0658 38.3954 24.4115 38.3954 19.1977C38.3954 13.9839 38.373 13.3296 38.2802 11.2819C38.1443 8.31421 37.3172 5.36576 35.1734 3.22202C33.0249 1.07347 30.0716 0.24957 27.1136 0.115186C25.0658 0.0223973 24.4115 0 19.1977 0Z" fill="#2EB196"/>
<path id="Vector_2" d="M19.1977 9.33984C13.7536 9.33984 9.33969 13.7537 9.33969 19.1979C9.33969 24.642 13.7536 29.0559 19.1977 29.0559C24.6419 29.0559 29.0558 24.642 29.0558 19.1979C29.0558 13.7537 24.6419 9.33984 19.1977 9.33984ZM19.1977 25.5971C15.6637 25.5971 12.7985 22.7319 12.7985 19.1979C12.7985 15.6639 15.6637 12.7986 19.1977 12.7986C22.7317 12.7986 25.597 15.6639 25.597 19.1979C25.597 22.7319 22.7317 25.5971 19.1977 25.5971Z" fill="#2EB196"/>
<path id="Vector_3" d="M29.4461 11.252C30.7184 11.252 31.7498 10.2206 31.7498 8.94826C31.7498 7.67594 30.7184 6.64453 29.4461 6.64453C28.1738 6.64453 27.1424 7.67594 27.1424 8.94826C27.1424 10.2206 28.1738 11.252 29.4461 11.252Z" fill="#2EB196"/>
</g>
</svg>
