<svg width="39" height="38" viewBox="0 0 39 38" fill="none" xmlns="http://www.w3.org/2000/svg">
<path id="Path_2520" d="M33.2306 32.38H27.4516V23.5618C27.4516 21.4588 27.4132 18.7528 24.4459 18.7528C21.4363 18.7528 20.975 21.0431 20.975 23.4101V32.38H15.198V14.2454H20.7463V16.7229H20.8232C21.9552 14.839 24.0577 13.7136 26.2966 13.7941C32.1544 13.7941 33.2325 17.5487 33.2325 22.4307L33.2306 32.38ZM8.67713 11.766C6.82447 11.766 5.32351 10.3035 5.32351 8.49828C5.32351 6.69306 6.82447 5.23053 8.67713 5.23053C10.5298 5.23053 12.0308 6.69306 12.0308 8.49828C12.0308 10.3035 10.5298 11.766 8.67713 11.766ZM11.5657 32.38H5.78091V14.2454H11.5657V32.38ZM36.1115 0.00212842H2.877C1.30685 -0.0147253 0.0192185 1.21185 0 2.7418V35.2582C0.0192185 36.7901 1.30685 38.0166 2.877 37.9998H36.1115C37.6855 38.0185 38.9789 36.7919 39 35.2582V2.73992C38.9769 1.20623 37.6835 -0.0203433 36.1115 0.0002557" fill="#2EB196"/>
</svg>
