<svg width="39" height="35" viewBox="0 0 39 35" fill="none" xmlns="http://www.w3.org/2000/svg">
<path id="Vector" d="M30.875 0H8.125C5.97091 0.00252614 3.90578 0.841403 2.38261 2.33262C0.859433 3.82384 0.00258027 5.84564 0 7.95455L0 27.0455C0.00258027 29.1544 0.859433 31.1762 2.38261 32.6674C3.90578 34.1586 5.97091 34.9975 8.125 35H30.875C33.0291 34.9975 35.0942 34.1586 36.6174 32.6674C38.1406 31.1762 38.9974 29.1544 39 27.0455V7.95455C38.9974 5.84564 38.1406 3.82384 36.6174 2.33262C35.0942 0.841403 33.0291 0.00252614 30.875 0ZM8.125 3.18182H30.875C31.848 3.18369 32.7982 3.47059 33.6033 4.0056C34.4084 4.5406 35.0315 5.29923 35.3925 6.18386L22.9482 18.3686C22.0324 19.2616 20.7926 19.763 19.5 19.763C18.2074 19.763 16.9676 19.2616 16.0518 18.3686L3.6075 6.18386C3.96849 5.29923 4.59162 4.5406 5.3967 4.0056C6.20178 3.47059 7.15197 3.18369 8.125 3.18182ZM30.875 31.8182H8.125C6.83207 31.8182 5.59209 31.3153 4.67785 30.4203C3.76361 29.5252 3.25 28.3113 3.25 27.0455V10.3409L13.754 20.6182C15.2793 22.1077 17.3457 22.9442 19.5 22.9442C21.6543 22.9442 23.7207 22.1077 25.246 20.6182L35.75 10.3409V27.0455C35.75 28.3113 35.2364 29.5252 34.3221 30.4203C33.4079 31.3153 32.1679 31.8182 30.875 31.8182Z" fill="#2EB196"/>
</svg>
