<svg width="74" height="74" viewBox="0 0 74 74" fill="none" xmlns="http://www.w3.org/2000/svg">
<g id="Isolation_Mode" clip-path="url(#clip0_3_966)">
<path id="Vector" d="M30.6607 74C29.1905 73.768 27.7105 73.5904 26.2552 73.2943C22.3431 72.5047 18.7417 70.9502 15.3969 68.7886C14.5632 68.2507 14.3215 67.4167 14.7704 66.7012C15.2292 65.9658 16.0679 65.798 16.9164 66.3409C20.1527 68.4086 23.6307 69.8694 27.4096 70.5948C32.5699 71.5868 37.6068 71.1229 42.5303 69.3167C42.6388 69.2772 42.7424 69.218 42.9052 69.139C42.3675 67.8609 41.8396 66.6025 41.3068 65.344C38.0755 57.7294 34.8392 50.1196 31.6276 42.4951C31.3908 41.9374 31.2576 41.2959 31.2527 40.6889C31.228 31.2976 31.2379 21.9014 31.2379 12.5102V11.612C28.7317 11.7255 26.344 12.1351 24.0549 12.9592C13.3101 16.848 6.30481 24.2554 3.61614 35.4085C1.77601 43.0429 3.40401 50.2085 7.52334 56.8361C7.63681 57.0187 7.76014 57.1964 7.87361 57.3839C8.42121 58.2673 8.29788 59.121 7.55294 59.5898C6.82774 60.0488 5.97921 59.8465 5.47601 58.968C4.48441 57.2408 3.37934 55.5432 2.64428 53.7074C-2.45186 40.9949 -0.0887898 29.5358 8.88001 19.4093C13.5371 14.1486 19.4423 10.7977 26.3489 9.36657C28.2927 8.96191 30.3005 8.83853 32.2887 8.68555C33.6108 8.58191 34.1288 9.16424 34.1288 10.4868C34.1288 19.9768 34.1288 29.4667 34.1288 38.9567V39.8894H35.0316C44.4691 39.8894 53.9065 39.8894 63.344 39.8894C64.9128 39.8894 65.3765 40.3385 65.3272 41.9226C65.0805 50.1443 62.0564 57.2408 56.5212 63.2565C51.7457 68.4481 45.8997 71.8582 38.9733 73.3288C37.5673 73.6249 36.1317 73.7779 34.706 74H30.6607ZM34.8885 42.8208C35.6779 44.6911 36.4376 46.5072 37.2269 48.3036C37.2861 48.4368 37.5673 48.5454 37.7449 48.5454C45.4952 48.5602 53.2455 48.5602 60.9957 48.5404C61.1931 48.5404 61.5285 48.2986 61.5631 48.1259C61.9084 46.3888 62.1995 44.6369 62.5201 42.8208H34.8836H34.8885ZM60.5172 51.4915H38.5639C39.3581 53.3668 40.1179 55.178 40.9121 56.9694C40.9763 57.1125 41.292 57.2211 41.4893 57.2211C46.7088 57.2359 51.9233 57.2359 57.1428 57.2211C57.3303 57.2211 57.6115 57.1569 57.7003 57.0237C58.8399 55.3013 59.792 53.4754 60.5172 51.4866M45.5643 67.9842C49.4024 66.0251 52.6337 63.4687 55.3964 60.1623H42.2491C43.3591 62.7877 44.4444 65.344 45.5643 67.9842Z" fill="white"/>
<path id="Vector_2" d="M74 33.0941C73.5757 33.8738 72.9245 34.1206 72.0365 34.1206C61.9774 34.0959 51.9134 34.1058 41.8544 34.1058C40.3645 34.1058 39.9106 33.6517 39.9106 32.1713C39.9106 22.0792 39.9106 11.9921 39.9106 1.9001C39.9106 0.468953 40.3941 -0.0344149 41.8149 0.00506497C50.0881 0.212334 57.2217 3.24735 63.2798 8.81894C68.4697 13.596 71.8688 19.4489 73.3389 26.3776C73.6349 27.7841 73.7878 29.2201 74.0049 30.6414V33.099L74 33.0941ZM42.841 2.98086V31.1793H71.0104C70.448 16.6557 57.3944 3.55331 42.841 2.98086Z" fill="white"/>
<path id="Vector_3" d="M12.3087 63.4143C12.3284 64.2088 11.6624 64.8898 10.8681 64.8898C10.0985 64.8898 9.45226 64.2532 9.43253 63.4833C9.4128 62.6888 10.0739 62.0078 10.8731 62.0127C11.6427 62.0127 12.2889 62.6493 12.3087 63.4192" fill="#FF8F00"/>
</g>
<defs>
<clipPath id="clip0_3_966">
<rect width="74" height="74" fill="white"/>
</clipPath>
</defs>
</svg>
