<svg width="92" height="80" viewBox="0 0 92 80" fill="none" xmlns="http://www.w3.org/2000/svg">
<g id="Isolation_Mode" clip-path="url(#clip0_10_70)">
<path id="Vector" d="M91.4585 59.7164C91.4098 59.8195 91.3366 59.9165 91.3061 60.0257C90.7208 62.4338 89.2026 63.9805 86.8246 64.6174C75.7216 67.5835 64.6124 70.5375 53.4911 73.4551C52.3204 73.7584 51.0826 73.9222 49.8754 73.9283C41.1868 73.9707 32.4922 73.9707 23.8036 73.9525C20.3953 73.9465 17.2369 72.9941 14.298 71.2957C14.1212 71.1987 13.9383 71.1198 13.6578 70.9864C13.6395 71.3139 13.609 71.5626 13.609 71.8113C13.609 73.9707 13.6151 76.1362 13.6029 78.2955C13.5968 79.4541 13.0603 79.9818 11.9079 79.9879C8.51174 80 5.12168 80 1.72552 79.9879C0.542654 79.9879 0 79.4298 0 78.2228C0 66.8617 0 55.4886 0 44.1154C0 42.9326 0.560946 42.3503 1.74381 42.3442C5.10948 42.326 8.46906 42.326 11.8347 42.3442C13.0725 42.3503 13.5968 42.9144 13.6029 44.17C13.6151 46.5356 13.6029 48.9012 13.6029 51.4549C17.3527 49.156 21.3342 48.1915 25.6511 48.3796V18.2695C24.8158 18.2695 23.9926 18.2756 23.1695 18.2695C21.7245 18.2574 21.2123 17.7661 21.2062 16.3588C21.2001 11.5912 21.2001 6.82357 21.2062 2.05594C21.2062 0.679027 21.7123 0.181641 23.0902 0.181641C45.0403 0.181641 66.972 0.181641 88.9099 0.181641C90.3367 0.181641 90.8549 0.685093 90.861 2.10446C90.8732 6.84176 90.8732 11.5791 90.861 16.3164C90.861 17.7236 90.3184 18.2453 88.916 18.2635C88.0868 18.2756 87.2575 18.2635 86.3003 18.2635V19.2704C86.3003 30.1401 86.3003 41.0037 86.2881 51.8734C86.2881 52.5224 86.4039 52.8257 87.1234 53.0259C89.2513 53.6264 90.611 55.0761 91.2634 57.187C91.3244 57.3811 91.3976 57.5691 91.4646 57.7571V59.7103L91.4585 59.7164ZM83.2273 18.3423H28.8216V48.3675C31.5227 48.3675 34.1689 48.3371 36.809 48.3796C38.0833 48.4038 39.4003 48.3978 40.6137 48.7132C47.717 50.539 54.7959 52.4436 61.8808 54.3543C63.4783 54.7849 64.6429 55.8101 65.4416 57.2476C65.5392 57.4235 65.655 57.5812 65.7709 57.7571C71.6303 56.1922 77.441 54.6394 83.2212 53.0987V18.3423H83.2273ZM36.6017 70.9621C39.3089 70.9621 42.0222 70.8711 44.7293 70.9803C49.1132 71.1623 53.3447 70.5315 57.5762 69.3426C66.8684 66.7404 76.2215 64.3384 85.5503 61.8393C86.0869 61.6938 86.6478 61.5179 87.1112 61.2206C88.3307 60.4442 88.7575 58.849 88.166 57.5327C87.5319 56.1194 86.0747 55.4704 84.4406 55.9071C78.6117 57.4539 72.7888 59.0249 66.9598 60.5595C66.405 60.7051 66.155 60.9174 66.0148 61.5057C65.2343 64.7387 62.1552 66.6676 58.8749 65.964C57.2226 65.6061 55.5946 65.1269 53.9605 64.6963C51.29 63.9927 48.6194 63.2769 45.9549 62.5612C44.9366 62.2882 44.4367 61.627 44.5891 60.796C44.7659 59.8195 45.5951 59.3585 46.7048 59.6496C50.8692 60.7475 55.0337 61.8515 59.192 62.9736C60.2773 63.2648 61.2711 63.1192 62.1125 62.3792C62.9784 61.621 63.3503 60.6687 63.0942 59.5162C62.7893 58.1393 61.8565 57.4357 60.5456 57.0899C55.1434 55.6645 49.7595 54.1966 44.3513 52.8015C42.2295 52.2556 40.0771 51.558 37.9187 51.467C33.2238 51.2669 28.5168 51.3578 23.8097 51.4246C20.2245 51.4731 16.9808 52.6438 14.1456 54.8335C13.8712 55.0458 13.6517 55.5007 13.6456 55.8464C13.609 59.4009 13.6029 62.9554 13.6456 66.5039C13.6456 66.8921 13.92 67.4137 14.237 67.6503C17.2064 69.8703 20.5538 70.9925 24.2853 70.9803C28.3948 70.9682 32.4983 70.9803 36.6078 70.9803M24.2914 15.2003H87.788V3.24481H24.2914V15.2003ZM10.5421 45.4256H3.0852V76.9368H10.5421V45.4256Z" fill="#FF8A0B"/>
<path id="Vector_2" d="M56.1068 21.2779C58.3994 21.2779 60.6858 21.2779 62.9784 21.2779C63.2771 21.2779 63.5759 21.2718 63.8686 21.3204C64.6063 21.4538 65.0271 21.9209 65.0758 22.6548C65.1307 23.4252 64.771 23.9771 64.0088 24.1834C63.643 24.2804 63.2467 24.2865 62.8625 24.2865C58.314 24.2926 53.7594 24.2865 49.2108 24.2865C48.9121 24.2865 48.6133 24.2865 48.3206 24.244C47.4426 24.1106 46.9244 23.4858 46.9731 22.6609C47.0219 21.8784 47.5768 21.3386 48.4365 21.284C49.0584 21.2476 49.6864 21.2658 50.3083 21.2658C52.2411 21.2658 54.174 21.2658 56.1129 21.2658" fill="#FF8A0B"/>
</g>
<defs>
<clipPath id="clip0_10_70">
<rect width="91.4585" height="79.8184" fill="white" transform="translate(0 0.181641)"/>
</clipPath>
</defs>
</svg>
